<?xml version="1.0" encoding="UTF-8"?><svg id="Layer_2" xmlns="http://www.w3.org/2000/svg" viewBox="0 0 282.74 175.44">
<style type="text/css">
	path{fill:#FFFFFF;}
</style>

<g id="Layer_1-2"><g><path d="M0,159.24H34.17v-12.94l16.9,15.78v13.37H16.68L0,159.24ZM29.57,76.25H12.94V13.37h21.23V0l16.9,16.63v12.51H29.57v47.11Zm4.6-.48l16.9,16.2v13.8H29.57v40.1H12.94v-56.52h21.23v-13.58Z"/><path d="M136.08,103.15v72.29h-13.37l-16.63-16.2h12.94V89.35h8.5c5.7,0,8.56,2.85,8.56,8.55v5.24Zm-17.06-26.47V13.37h5.03c8.91,0,13.37,4.38,13.37,13.15V62.88c0,4.96-.41,8.68-2.19,10.27-2.39,2.12-5.26,3.79-11.6,3.57-1.41-.05-2.71-.04-4.6-.04Zm48.18,34.6v64.17h-13.11l-16.67-16.2h12.73V93.31c0-2.64-.73-5.04-2.2-7.22-1.47-2.21-3.44-3.53-5.91-3.96l-3.54-.43,3.54-.86c5.41-1.18,8.11-6.59,8.11-16.26V22.35c0-5.1-1.97-10.36-5.91-15.77l5.91,5.45,11.14,11.18c3.66,3.67,5.49,8.65,5.49,14.92v30c0,5.7-.73,9.71-2.19,12.03-1.46,2.5-4.82,4.9-10.07,7.22l-1.71,.91,10.23,9.41c2.77,2.78,4.16,7.31,4.16,13.58Z"/><path d="M232.37,121.11h17.54l1.5,18.39-5.45-5.24v41.17h-12.94l-17.06-16.2h13.37l3.05-38.13Zm16.2-13.37h-15.13l7.91-70.05,7.22,70.05Zm20.59-91.54l13.58,159.24h-12.94l-17.06-16.2h13.37L251.83,0l17.33,16.2Z"/></g></g></svg>
