<?xml version="1.0" standalone="no"?>
<!DOCTYPE svg PUBLIC "-//W3C//DTD SVG 20010904//EN"
 "http://www.w3.org/TR/2001/REC-SVG-20010904/DTD/svg10.dtd">
<svg version="1.0" xmlns="http://www.w3.org/2000/svg"
 width="613.000000pt" height="150.000000pt" viewBox="0 0 613.000000 150.000000"
 preserveAspectRatio="xMidYMid meet">

<g transform="translate(0.000000,150.000000) scale(0.100000,-0.100000)"
fill="#FFFFFF" stroke="none">
<path d="M684 1265 c-253 -45 -403 -179 -443 -399 -47 -254 50 -488 243 -585
117 -59 199 -74 406 -75 214 -1 299 13 417 71 171 83 263 245 263 463 0 272
-129 440 -391 511 -99 27 -377 35 -495 14z m382 -94 c87 -17 161 -51 214 -97
27 -25 50 -52 50 -60 0 -9 -25 -26 -57 -41 -185 -82 -229 -107 -284 -163 -30
-31 -61 -71 -68 -88 -8 -18 -16 -32 -20 -32 -3 1 -23 25 -44 55 -53 77 -122
125 -266 187 -69 29 -126 59 -129 66 -2 8 20 37 50 67 55 53 125 87 213 105
57 11 283 12 341 1z m332 -448 c-6 -165 -27 -224 -107 -304 -59 -58 -125 -91
-225 -110 -66 -12 -269 -11 -342 2 -138 25 -250 111 -295 227 -29 74 -41 292
-16 292 33 0 285 -93 331 -123 47 -30 128 -126 141 -167 10 -30 19 -24 43 25
26 54 91 126 140 157 32 20 304 126 326 127 4 1 6 -56 4 -126z"/>
<path d="M1980 740 l0 -351 118 3 117 3 3 243 2 242 80 0 80 0 0 -245 0 -246
113 3 112 3 3 243 2 242 59 0 c43 0 65 -5 82 -19 24 -19 24 -21 27 -245 l3
-226 115 0 114 0 0 46 0 47 24 -26 c57 -62 58 -62 441 -65 l350 -2 315 255
c173 140 318 255 323 255 4 0 7 -115 7 -256 l0 -256 278 4 c260 3 279 5 317
25 47 25 86 65 110 112 l17 35 13 -38 c16 -47 48 -81 100 -109 38 -21 55 -22
338 -25 l298 -3 -3 288 c-3 277 -4 289 -25 323 -12 20 -41 47 -65 60 -42 25
-47 25 -310 28 l-268 3 0 -95 0 -96 208 0 c114 0 212 -4 218 -8 11 -7 34 -45
34 -56 0 -2 -94 -6 -209 -8 l-209 -3 -45 -31 -44 -32 -6 68 c-9 112 -54 192
-130 233 -41 21 -52 22 -385 25 l-343 3 -136 -108 c-75 -59 -218 -172 -317
-250 l-181 -143 -5 188 c-6 213 -12 233 -82 280 l-41 27 -274 3 -273 3 0 -95
0 -96 208 0 c221 0 252 -6 252 -51 0 -18 -8 -19 -182 -19 -197 0 -241 -7 -286
-45 l-30 -25 -4 83 c-6 115 -40 176 -123 220 -39 21 -52 22 -472 25 l-433 3 0
-351z m2969 135 c37 -19 56 -67 54 -136 -1 -61 -22 -113 -52 -129 -11 -5 -74
-10 -140 -10 l-121 0 0 145 0 145 115 0 c82 0 124 -4 144 -15z m-1441 -242
l-3 -48 -126 -3 c-111 -2 -129 0 -149 16 -18 14 -21 25 -17 45 9 33 17 34 170
36 l128 1 -3 -47z m2212 -3 l0 -50 -128 0 c-136 0 -172 10 -172 50 0 40 36 50
172 50 l128 0 0 -50z"/>
<path d="M3760 985 l0 -105 138 0 137 0 90 76 c50 42 106 89 125 105 l35 29
-263 0 -262 0 0 -105z"/>
<path d="M4048 517 c-54 -45 -108 -92 -120 -104 l-22 -23 256 0 c195 0 257 3
261 12 2 7 4 54 3 103 l-1 90 -140 2 -140 2 -97 -82z"/>
</g>
</svg>
