<?xml version="1.0" encoding="UTF-8"?>
<!DOCTYPE svg PUBLIC "-//W3C//DTD SVG 1.1//EN" "http://www.w3.org/Graphics/SVG/1.1/DTD/svg11.dtd">
<svg xmlns="http://www.w3.org/2000/svg" version="1.1" width="881px" height="328px" style="shape-rendering:geometricPrecision; text-rendering:geometricPrecision; image-rendering:optimizeQuality; fill-rule:evenodd; clip-rule:evenodd" xmlns:xlink="http://www.w3.org/1999/xlink">
<g><path style="opacity:0.97" fill="#fff" d="M 116.5,26.5 C 140.338,23.7506 163.004,27.5839 184.5,38C 201.307,47.6421 213.307,61.4755 220.5,79.5C 237.487,80.4995 254.487,80.8328 271.5,80.5C 271.333,106.835 271.5,133.169 272,159.5C 272.846,165.508 276.346,168.508 282.5,168.5C 289.322,167.339 295.489,164.672 301,160.5C 301.333,142.5 301.667,124.5 302,106.5C 314.079,97.8768 326.246,89.3768 338.5,81C 346.493,80.5003 354.493,80.3336 362.5,80.5C 362.334,71.8269 362.5,63.1603 363,54.5C 375.491,45.2544 388.158,36.2544 401,27.5C 401.5,45.1635 401.667,62.8302 401.5,80.5C 426.167,80.5 450.833,80.5 475.5,80.5C 475.334,84.8461 475.501,89.1794 476,93.5C 489.369,78.9539 505.536,74.7872 524.5,81C 541.545,88.9135 552.045,102.08 556,120.5C 565.15,92.0634 584.816,77.7301 615,77.5C 648.429,77.6958 668.762,94.0291 676,126.5C 680.603,153.728 672.103,175.561 650.5,192C 624.294,205.528 598.961,204.195 574.5,188C 565.956,180.405 559.789,171.238 556,160.5C 547.579,190.282 528.079,203.448 497.5,200C 489.323,198.246 482.323,194.413 476.5,188.5C 475.667,217.161 475.167,245.828 475,274.5C 462.668,284.07 449.835,292.736 436.5,300.5C 436.5,236.5 436.5,172.5 436.5,108.5C 424.833,108.5 413.167,108.5 401.5,108.5C 401.333,127.17 401.5,145.836 402,164.5C 402.987,168.605 405.654,170.605 410,170.5C 414.263,169.785 418.096,168.118 421.5,165.5C 422.833,175.167 422.833,184.833 421.5,194.5C 404.971,202.288 388.638,202.122 372.5,194C 366.798,188.762 363.631,182.262 363,174.5C 362.5,152.503 362.333,130.503 362.5,108.5C 355.167,108.5 347.833,108.5 340.5,108.5C 340.5,129.167 340.5,149.833 340.5,170.5C 346.167,170.5 351.833,170.5 357.5,170.5C 356.878,182.087 361.211,191.253 370.5,198C 347.502,198.5 324.502,198.667 301.5,198.5C 301.665,195.482 301.498,192.482 301,189.5C 283.637,201.651 265.47,203.151 246.5,194C 239.846,188.68 235.679,181.847 234,173.5C 233.5,151.836 233.333,130.169 233.5,108.5C 231.167,108.5 228.833,108.5 226.5,108.5C 226.12,158.699 201.454,188.865 152.5,199C 124.024,203.772 97.6904,198.438 73.5,183C 47.3767,161.323 36.5434,133.49 41,99.5C 48.9934,57.3391 74.16,33.0058 116.5,26.5 Z M 129.5,57.5 C 153.423,57.9175 168.923,69.5842 176,92.5C 182.03,114.51 178.696,134.843 166,153.5C 151.713,168.279 134.88,172.112 115.5,165C 100.712,157.295 91.8791,145.128 89,128.5C 85.4731,109.173 88.8064,91.1735 99,74.5C 107.008,64.7505 117.175,59.0838 129.5,57.5 Z M 610.5,107.5 C 626.085,106.577 634.918,113.911 637,129.5C 638.816,141.082 637.15,152.082 632,162.5C 620.315,174.326 608.982,173.993 598,161.5C 591.103,147.322 590.77,132.988 597,118.5C 600.213,113.107 604.713,109.441 610.5,107.5 Z M 490.5,110.5 C 508.047,108.877 517.547,116.877 519,134.5C 520.114,144.821 518.114,154.487 513,163.5C 502.092,174.076 491.425,173.743 481,162.5C 474.899,149.931 473.899,136.931 478,123.5C 480.353,117.315 484.52,112.982 490.5,110.5 Z"/></g>
<g><path style="opacity:0.962" fill="#fff" d="M 817.5,27.5 C 819.486,44.8017 820.153,62.4684 819.5,80.5C 826.167,80.5 832.833,80.5 839.5,80.5C 839.5,92.1667 839.5,103.833 839.5,115.5C 832.833,115.5 826.167,115.5 819.5,115.5C 819.333,132.503 819.5,149.503 820,166.5C 822.103,168.868 824.77,170.201 828,170.5C 831.834,169.499 835.334,167.833 838.5,165.5C 839.833,175.167 839.833,184.833 838.5,194.5C 822.842,201.923 807.175,202.089 791.5,195C 787.182,191.685 784.015,187.519 782,182.5C 780.554,160.211 780.054,137.878 780.5,115.5C 767.15,115.833 753.817,115.499 740.5,114.5C 739.09,111.504 737.09,109.004 734.5,107C 725.822,102.998 716.822,101.998 707.5,104C 698.691,107.975 698.358,112.308 706.5,117C 719.162,119.666 731.828,122.333 744.5,125C 772.875,133.249 782.042,151.416 772,179.5C 766.15,190.013 757.316,196.513 745.5,199C 733.086,201.239 720.753,200.905 708.5,198C 705.751,196.877 703.251,195.377 701,193.5C 700.506,195.134 700.34,196.801 700.5,198.5C 683.497,198.667 666.497,198.5 649.5,198C 665.025,188.635 675.025,175.135 679.5,157.5C 686.468,156.503 693.468,156.17 700.5,156.5C 701.756,165.928 707.09,171.761 716.5,174C 724.354,175.88 732.02,175.213 739.5,172C 746.148,166.952 746.148,161.952 739.5,157C 727.292,153.798 714.958,151.132 702.5,149C 695.329,147.08 688.662,144.08 682.5,140C 681.723,126.723 678.223,114.223 672,102.5C 671.333,100.833 671.333,99.1667 672,97.5C 678.193,88.3192 686.693,82.4858 697.5,80C 711.853,77.2501 725.853,78.4168 739.5,83.5C 740.386,82.675 740.719,81.675 740.5,80.5C 753.833,80.5 767.167,80.5 780.5,80.5C 780.334,71.8269 780.5,63.1603 781,54.5C 793.35,45.6367 805.516,36.6367 817.5,27.5 Z"/></g>
</svg>
