<?xml version="1.0" encoding="utf-8"?>
<!-- Generator: Adobe Illustrator 25.4.1, SVG Export Plug-In . SVG Version: 6.00 Build 0)  -->
<svg version="1.1" id="Layer_1" xmlns="http://www.w3.org/2000/svg" xmlns:xlink="http://www.w3.org/1999/xlink" x="0px" y="0px"
	 viewBox="0 0 187 47.5" style="enable-background:new 0 0 187 47.5;" xml:space="preserve">
<style type="text/css">
	.st0{fill:#FFFFFF;}
</style>
<path class="st0" d="M21,24.6l-7-8.3H4.4v8.2H0.5V1.9h15.4c5.3,0,9.2,2.5,9.2,7.2c0,3.9-2.7,6.3-6.7,7l7.3,8.4L21,24.6L21,24.6z
	 M15.7,13c3.3,0,5.4-1,5.4-3.8s-2.2-3.8-5.4-3.8H4.3v7.7L15.7,13L15.7,13z M58.6,21.2l1.7,3.4H37.7V1.9H60l-1.7,3.4H41.6v6.1h13.9
	v3.4H41.6v6.4L58.6,21.2L58.6,21.2z M184.7,21.2l1.7,3.4h-22.7V1.9h22.4l-1.7,3.4h-16.7v6.1h13.9v3.4h-13.9v6.4L184.7,21.2
	L184.7,21.2z M73.8,1.9l9.6,18.7L93,1.9h4.2L85.4,24.6h-4.2L69.5,1.9H73.8z M108.8,24.6V1.9h3.9v22.7H108.8z M151.9,1.9l-11.7,22.7
	H136L124.2,1.9h4.2l9.6,18.7l9.6-18.7C147.6,1.9,151.9,1.9,151.9,1.9z"/>
<path class="st0" d="M12.5,43.4c0,0.9,0.6,1.3,1.5,1.3c0.8,0,1.3-0.4,1.3-1s-0.3-0.9-1-1l-1-0.2c-1.2-0.3-1.7-0.9-1.7-1.8
	c0-0.6,0.2-1,0.6-1.3c0.4-0.4,1-0.5,1.7-0.5s1.2,0.2,1.7,0.5c0.4,0.4,0.6,0.8,0.6,1.4h-1c0-0.7-0.6-1.1-1.3-1.1
	c-0.8,0-1.2,0.4-1.2,1c0,0.5,0.3,0.8,1.1,1l1,0.2c1.1,0.3,1.6,0.9,1.6,1.9c0,0.6-0.2,1-0.7,1.4c-0.4,0.4-1,0.5-1.7,0.5
	c-1.5,0-2.5-0.8-2.5-2.1L12.5,43.4L12.5,43.4z"/>
<path class="st0" d="M23.6,38.8v0.8h-1.9v5.8h-1v-5.8h-1.9v-0.8H23.6z"/>
<path class="st0" d="M31.6,45.4h-1.1l-1.2-2.5h-1.7v2.5h-1v-6.7h2.6c0.8,0,1.3,0.2,1.7,0.6c0.4,0.4,0.6,0.9,0.6,1.5
	c0,0.9-0.4,1.6-1.3,1.9L31.6,45.4z M29.1,42c0.9,0,1.4-0.4,1.4-1.2s-0.5-1.2-1.4-1.2h-1.6V42H29.1L29.1,42z"/>
<path class="st0" d="M34.7,38.8h1V43c0,1.1,0.6,1.7,1.6,1.7c1.1,0,1.6-0.6,1.6-1.7v-4.2h1V43c0,1.5-1,2.5-2.6,2.5s-2.6-1-2.6-2.5
	V38.8z"/>
<path class="st0" d="M43.9,39.5c0.5-0.6,1.2-0.9,2.1-0.9c0.8,0,1.3,0.2,1.9,0.6c0.5,0.4,0.8,1,0.8,1.7h-1c-0.2-0.8-0.8-1.4-1.7-1.4
	c-1.2,0-1.9,1-1.9,2.5c0,1.6,0.6,2.5,1.9,2.5c0.9,0,1.5-0.6,1.6-1.4h1c0,0.7-0.3,1.2-0.8,1.7c-0.4,0.5-1.1,0.7-1.8,0.7
	c-0.9,0-1.6-0.3-2.1-0.9c-0.5-0.6-0.8-1.5-0.8-2.5C43.1,40.9,43.4,40.1,43.9,39.5z"/>
<path class="st0" d="M55.8,38.8v0.8h-1.9v5.8h-1v-5.8H51v-0.8H55.8z"/>
<path class="st0" d="M58.7,38.8h1V43c0,1.1,0.6,1.7,1.6,1.7c1.1,0,1.6-0.6,1.6-1.7v-4.2h1V43c0,1.5-1,2.5-2.6,2.5s-2.6-1-2.6-2.5
	V38.8z"/>
<path class="st0" d="M72.4,45.4h-1.1l-1.2-2.5h-1.7v2.5h-1v-6.7H70c0.8,0,1.3,0.2,1.7,0.6c0.4,0.4,0.6,0.9,0.6,1.5
	c0,0.9-0.4,1.6-1.3,1.9L72.4,45.4z M70.1,42c0.9,0,1.4-0.4,1.4-1.2s-0.5-1.2-1.4-1.2h-1.6V42H70.1L70.1,42z"/>
<path class="st0" d="M79.5,45.4l-0.6-1.8h-2.5l-0.6,1.8h-1l2.3-6.7h1l2.3,6.7H79.5z M76.8,42.8h1.9l-1-2.9L76.8,42.8z"/>
<path class="st0" d="M83.5,45.4v-6.7h1v5.8h2.8v0.9H83.5L83.5,45.4z"/>
<path class="st0" d="M94.3,45.4v-6.7h4.4v0.9h-3.4v2h2.5v0.9h-2.5v2h3.4v0.9H94.3L94.3,45.4z"/>
<path class="st0" d="M106,38.8h1v6.7h-1l-3.1-5v5h-1v-6.6h1l3.1,5V38.8z"/>
<path class="st0" d="M111.2,44.6c-0.5-0.6-0.8-1.4-0.8-2.5s0.3-1.9,0.8-2.5c0.6-0.6,1.2-0.9,2.1-0.9c0.8,0,1.3,0.2,1.8,0.6
	c0.5,0.4,0.8,1,0.8,1.6h-1c-0.1-0.8-0.8-1.3-1.6-1.3c-1.2,0-1.9,1-1.9,2.5c0,1.6,0.7,2.5,1.9,2.5c1.1,0,1.7-0.7,1.7-1.9h-2v-0.8h2.9
	v0.8c0,0.9-0.2,1.5-0.8,2c-0.5,0.5-1.2,0.8-2,0.8S111.7,45.2,111.2,44.6z"/>
<path class="st0" d="M120.5,45.4h-1v-6.7h1V45.4z"/>
<path class="st0" d="M128.3,38.8h1v6.7h-1l-3.1-5v5h-1v-6.6h1l3.1,5V38.8z"/>
<path class="st0" d="M133,45.4v-6.7h4.4v0.9H134v2h2.5v0.9H134v2h3.4v0.9H133L133,45.4z"/>
<path class="st0" d="M140.7,45.4v-6.7h4.4v0.9h-3.4v2h2.5v0.9h-2.5v2h3.4v0.9H140.7L140.7,45.4z"/>
<path class="st0" d="M153.4,45.4h-1.1l-1.2-2.5h-1.7v2.5h-1v-6.7h2.6c0.8,0,1.3,0.2,1.7,0.6c0.4,0.4,0.6,0.9,0.6,1.5
	c0,0.9-0.4,1.6-1.3,1.9L153.4,45.4z M151,42c0.9,0,1.4-0.4,1.4-1.2s-0.5-1.2-1.4-1.2h-1.6V42H151L151,42z"/>
<path class="st0" d="M157.6,45.4h-1v-6.7h1V45.4z"/>
<path class="st0" d="M165.4,38.8h1v6.7h-1l-3.1-5v5h-1v-6.6h1l3.1,5V38.8z"/>
<path class="st0" d="M170.6,44.6c-0.5-0.6-0.8-1.4-0.8-2.5s0.3-1.9,0.8-2.5c0.6-0.6,1.2-0.9,2.1-0.9c0.8,0,1.3,0.2,1.8,0.6
	c0.5,0.4,0.8,1,0.8,1.6h-1c-0.1-0.8-0.8-1.3-1.6-1.3c-1.2,0-1.9,1-1.9,2.5c0,1.6,0.7,2.5,1.9,2.5c1.1,0,1.7-0.7,1.7-1.9h-1.9v-0.8
	h2.9v0.8c0,0.9-0.2,1.5-0.8,2c-0.5,0.5-1.1,0.8-2,0.8C171.8,45.5,171.1,45.2,170.6,44.6z"/>
</svg>
