<?xml version="1.0" standalone="no"?>
<!DOCTYPE svg PUBLIC "-//W3C//DTD SVG 20010904//EN"
 "http://www.w3.org/TR/2001/REC-SVG-20010904/DTD/svg10.dtd">
<svg version="1.0" xmlns="http://www.w3.org/2000/svg"
 width="700.000000pt" height="180.000000pt" viewBox="0 0 700.000000 180.000000"
 preserveAspectRatio="xMidYMid meet">

<g transform="translate(0.000000,180.000000) scale(0.100000,-0.100000)"
fill="#fff" stroke="none">
<path d="M0 1730 c0 -59 3 -70 18 -72 9 -1 98 -2 197 -2 176 -1 181 -2 237
-29 98 -48 205 -162 266 -283 15 -30 29 -43 49 -47 15 -3 29 -4 30 -4 1 1 -8
45 -19 97 -33 159 -9 273 77 369 l37 41 -446 0 -446 0 0 -70z"/>
<path d="M1407 1758 c15 -78 7 -198 -17 -263 -23 -61 -80 -157 -99 -169 -6 -4
-11 -11 -11 -15 0 -4 27 5 60 21 94 45 187 61 279 48 42 -6 100 -17 129 -25
l52 -13 0 229 0 229 -201 0 -201 0 9 -42z"/>
<path d="M0 1334 l0 -239 79 3 c69 4 180 -11 258 -34 18 -5 2 4 -77 39 -57 26
-150 118 -178 178 -12 25 -33 99 -47 164 -13 64 -27 120 -30 123 -3 3 -5 -102
-5 -234z"/>
<path d="M3540 1540 c-19 -4 -27 -8 -17 -9 14 -1 17 -11 17 -65 l0 -65 -26 14
c-32 16 -81 4 -106 -26 -26 -31 -24 -109 3 -143 16 -20 29 -26 59 -26 21 0 43
6 50 15 15 18 31 20 28 3 -2 -9 11 -14 37 -16 36 -2 38 -1 23 11 -16 12 -18
33 -18 166 0 83 -3 150 -7 150 -5 -1 -24 -5 -43 -9z m-10 -149 c18 -35 12
-119 -10 -141 -11 -11 -26 -20 -34 -20 -25 0 -46 42 -46 90 0 25 7 56 16 68
19 27 60 29 74 3z"/>
<path d="M3687 1524 c-12 -12 -8 -42 6 -47 21 -8 39 8 35 29 -3 19 -29 30 -41
18z"/>
<path d="M5377 1523 c-12 -12 -7 -41 7 -46 19 -7 40 18 32 38 -6 15 -28 20
-39 8z"/>
<path d="M5582 1497 c-43 -45 -40 -53 8 -21 40 27 48 38 32 48 -5 3 -23 -9
-40 -27z"/>
<path d="M5980 1495 c-42 -43 -37 -51 12 -15 22 16 33 31 29 38 -5 8 -18 0
-41 -23z"/>
<path d="M2414 1510 c-86 -35 -110 -194 -38 -260 21 -21 37 -25 97 -28 40 -1
77 1 84 5 16 11 30 69 14 59 -6 -4 -11 -13 -11 -20 0 -16 -42 -36 -75 -36 -14
0 -39 13 -57 29 -27 24 -32 36 -36 87 -8 109 42 176 116 158 22 -5 41 -18 48
-32 l11 -23 5 26 c5 21 1 28 -19 36 -30 11 -110 11 -139 -1z"/>
<path d="M4690 1503 c-30 -15 -35 -24 -38 -56 -4 -47 15 -71 67 -88 70 -23 92
-68 51 -109 -35 -35 -92 -19 -114 32 l-14 33 -1 -36 c-1 -43 25 -59 95 -59 60
0 94 32 94 88 0 51 -23 78 -85 100 -38 13 -51 23 -53 40 -8 55 70 73 107 26
l21 -27 0 26 c0 31 -5 34 -56 42 -27 4 -50 1 -74 -12z"/>
<path d="M5757 1463 c-4 -3 -7 -15 -7 -25 0 -11 -7 -18 -20 -18 -11 0 -20 -4
-20 -10 0 -5 9 -10 20 -10 18 0 20 -7 20 -78 0 -47 5 -83 12 -90 15 -15 75
-16 84 -1 4 7 0 9 -14 5 -30 -10 -42 19 -42 98 0 64 1 66 25 66 14 0 25 5 25
10 0 6 -11 10 -25 10 -20 0 -25 5 -25 25 0 24 -18 34 -33 18z"/>
<path d="M2972 1414 c-18 -12 -27 -13 -35 -5 -6 6 -27 11 -46 11 -32 -1 -34
-2 -18 -14 23 -18 25 -160 2 -173 -9 -6 6 -9 41 -9 44 0 52 3 40 12 -22 15
-22 121 0 152 17 24 43 29 62 10 19 -19 16 -148 -4 -162 -12 -9 -4 -12 39 -12
40 0 51 3 42 11 -8 6 -15 39 -17 87 -2 43 -8 82 -13 87 -20 20 -69 23 -93 5z"/>
<path d="M4145 1414 c-19 -10 -31 -11 -33 -5 -2 6 -20 11 -40 11 -33 -1 -35
-2 -19 -14 24 -19 25 -153 1 -171 -13 -9 -7 -11 34 -11 32 1 47 5 41 11 -5 5
-9 39 -9 75 0 52 4 71 18 83 45 41 72 6 72 -90 0 -38 -5 -59 -15 -67 -12 -9
-2 -11 42 -12 47 -1 54 1 36 9 -21 9 -23 17 -23 94 0 80 -1 84 -26 93 -34 13
-44 13 -79 -6z"/>
<path d="M4950 1419 c-47 -10 -70 -41 -70 -96 0 -36 6 -50 29 -74 24 -24 38
-29 76 -29 38 0 52 5 76 29 23 24 29 38 29 74 0 28 -7 53 -17 66 -22 27 -76
40 -123 30z m70 -24 c19 -23 23 -105 8 -135 -10 -18 -22 -25 -43 -25 -39 0
-57 34 -52 97 5 55 20 78 52 78 12 0 28 -7 35 -15z"/>
<path d="M5565 1423 c-72 -18 -99 -129 -45 -183 28 -28 110 -28 135 0 21 23 9
26 -19 5 -11 -8 -28 -15 -38 -15 -28 0 -58 37 -58 70 l0 30 65 0 c61 0 65 1
65 23 0 23 -33 67 -50 67 -4 0 -14 2 -22 4 -7 2 -22 1 -33 -1z m55 -32 c21
-40 13 -51 -36 -51 -42 0 -45 1 -38 23 15 49 54 64 74 28z"/>
<path d="M5953 1418 c-63 -16 -87 -125 -38 -173 31 -32 101 -35 136 -5 28 22
14 27 -15 5 -45 -34 -96 -5 -96 53 l0 32 65 0 c57 0 65 2 65 19 0 26 -35 68
-62 73 -13 2 -38 0 -55 -4z m67 -34 c16 -40 13 -44 -35 -44 -48 0 -52 5 -33
45 15 34 55 34 68 -1z"/>
<path d="M2654 1406 c-15 -12 -17 -17 -6 -27 10 -11 15 -9 28 9 19 27 60 29
74 3 19 -36 12 -48 -32 -55 -60 -10 -88 -30 -88 -64 0 -16 5 -33 12 -40 17
-17 69 -15 96 4 20 14 22 14 22 0 0 -12 11 -16 41 -16 24 0 38 4 34 10 -3 6
-13 10 -21 10 -11 0 -14 16 -14 74 0 54 -4 79 -16 90 -20 20 -103 21 -130 2z
m101 -86 c4 -6 4 -24 0 -40 -11 -51 -67 -64 -79 -18 -7 29 9 56 36 61 13 2 26
5 30 6 4 0 10 -4 13 -9z"/>
<path d="M3183 1408 c-25 -12 -29 -23 -12 -33 6 -4 17 2 25 14 27 38 84 22 84
-25 0 -18 -8 -23 -42 -28 -78 -13 -105 -46 -78 -97 14 -24 76 -26 102 -2 17
15 18 15 18 0 0 -13 9 -17 41 -17 24 0 38 4 34 10 -3 6 -13 10 -21 10 -11 0
-14 17 -14 80 0 68 -3 81 -19 90 -25 13 -89 12 -118 -2z m93 -93 c17 -43 -31
-100 -62 -74 -8 6 -14 24 -14 39 0 22 6 31 28 38 38 14 42 14 48 -3z"/>
<path d="M3668 1408 c20 -10 22 -18 22 -86 0 -57 -4 -78 -16 -86 -13 -10 -6
-12 36 -12 42 0 49 2 36 12 -13 9 -16 30 -16 98 l0 86 -42 -1 c-38 0 -41 -2
-20 -11z"/>
<path d="M3835 1407 c-11 -8 -15 -19 -10 -26 5 -9 13 -7 31 9 33 32 74 21 74
-20 0 -17 -5 -30 -12 -30 -36 0 -90 -24 -104 -45 -15 -23 -15 -27 0 -50 19
-29 75 -35 96 -10 7 8 16 15 21 15 5 0 9 -7 9 -15 0 -11 11 -15 38 -15 33 1
35 2 20 14 -14 10 -18 28 -18 83 0 55 -4 73 -18 86 -23 21 -100 23 -127 4z
m95 -111 c0 -24 -7 -39 -22 -50 -27 -19 -58 -5 -58 28 0 31 21 47 73 55 4 0 7
-14 7 -33z"/>
<path d="M5166 1395 c-13 -14 -26 -37 -29 -51 -7 -38 10 -91 36 -109 32 -22
100 -20 122 5 21 23 9 26 -19 5 -27 -20 -50 -19 -71 5 -24 26 -24 99 -1 134
21 32 65 36 73 6 7 -27 25 -25 21 3 -3 19 -10 22 -55 25 -46 3 -56 0 -77 -23z"/>
<path d="M5358 1408 c20 -10 22 -18 22 -86 0 -55 -4 -78 -15 -86 -12 -9 -4
-11 36 -12 42 0 48 2 35 11 -13 10 -16 30 -16 99 l0 86 -42 -1 c-38 0 -41 -2
-20 -11z"/>
<path d="M5770 1099 c-19 -4 -27 -7 -17 -8 14 -1 17 -11 17 -66 0 -60 -9 -80
-25 -55 -11 18 -84 11 -104 -9 -39 -39 -39 -123 -1 -161 25 -25 86 -27 112 -3
17 15 18 15 18 0 0 -13 9 -17 43 -16 37 0 39 2 20 11 -22 10 -23 17 -25 162
l-3 151 -35 -6z m-16 -151 c49 -70 -23 -205 -75 -142 -17 20 -17 111 -1 142
16 29 56 29 76 0z"/>
<path d="M5910 1074 c-11 -12 -10 -18 3 -32 16 -15 18 -15 34 0 13 14 14 20 3
32 -7 9 -16 16 -20 16 -4 0 -13 -7 -20 -16z"/>
<path d="M2403 1060 c-41 -24 -60 -55 -68 -105 -10 -57 9 -119 46 -149 26 -22
40 -26 97 -26 78 0 88 5 98 44 5 21 4 27 -5 22 -6 -4 -11 -13 -11 -20 0 -16
-42 -36 -75 -36 -14 0 -39 13 -57 29 -28 25 -32 35 -36 92 -4 74 18 125 61
147 35 17 88 3 103 -27 l11 -22 5 26 c5 21 1 28 -19 36 -42 16 -115 10 -150
-11z"/>
<path d="M2975 975 c-19 -11 -31 -12 -33 -6 -2 6 -22 11 -45 11 -37 -1 -40 -2
-24 -14 23 -18 25 -160 2 -173 -9 -6 5 -9 40 -9 35 0 49 3 40 9 -21 11 -21
125 1 155 17 24 43 29 62 10 19 -19 16 -148 -4 -162 -12 -9 -4 -12 39 -12 40
0 51 3 42 11 -8 6 -15 39 -17 87 -2 43 -8 82 -13 87 -19 19 -60 21 -90 6z"/>
<path d="M5195 974 c-19 -10 -31 -11 -33 -5 -5 14 -72 14 -72 1 0 -5 7 -10 15
-10 23 0 22 -148 -1 -165 -13 -9 -7 -11 35 -11 40 1 48 3 36 12 -18 13 -20 86
-4 133 12 33 52 52 71 33 6 -6 13 -42 16 -80 4 -61 2 -71 -16 -83 -18 -13 -14
-14 42 -15 48 -1 56 1 38 9 -20 9 -22 17 -22 86 0 42 -4 81 -8 87 -13 21 -65
25 -97 8z"/>
<path d="M6355 974 c-19 -10 -31 -11 -33 -5 -2 6 -20 11 -40 11 -33 -1 -35 -2
-19 -14 24 -18 25 -153 1 -170 -12 -9 -4 -12 40 -12 35 0 50 3 41 9 -23 13
-21 139 3 160 45 41 72 10 72 -84 0 -44 -4 -65 -16 -73 -12 -9 -3 -12 43 -12
47 -1 54 1 36 9 -21 9 -23 17 -23 94 0 80 -1 84 -26 93 -34 13 -44 13 -79 -6z"/>
<path d="M6635 974 c-19 -10 -31 -11 -33 -5 -2 6 -20 11 -40 11 -33 -1 -35 -2
-19 -14 24 -19 25 -153 1 -171 -13 -9 -7 -11 34 -11 32 1 47 5 41 10 -5 6 -9
40 -9 76 0 52 4 71 18 83 45 41 72 10 72 -84 0 -44 -4 -65 -16 -73 -12 -9 -3
-12 43 -12 47 -1 54 1 36 9 -21 9 -23 17 -23 94 0 80 -1 84 -26 93 -34 13 -44
13 -79 -6z"/>
<path d="M2663 970 c-25 -10 -30 -25 -12 -35 6 -4 17 2 25 14 19 26 60 27 74
2 19 -36 12 -48 -32 -55 -60 -10 -88 -30 -88 -64 0 -16 5 -33 12 -40 18 -18
83 -15 99 5 13 15 12 15 -8 5 -27 -15 -49 -7 -57 20 -7 31 11 58 39 58 37 0
40 -2 41 -35 2 -65 2 -65 42 -65 33 1 35 2 20 14 -14 10 -18 28 -18 84 0 51
-4 75 -16 86 -17 18 -84 21 -121 6z"/>
<path d="M3180 951 c-40 -40 -43 -109 -5 -146 32 -33 103 -35 130 -5 10 11 13
20 8 20 -6 0 -16 -7 -23 -15 -18 -22 -57 -18 -74 7 -9 12 -16 43 -16 68 0 83
61 123 95 63 l15 -28 -2 30 c-3 28 -6 30 -51 33 -41 3 -51 -1 -77 -27z"/>
<path d="M3385 955 c-20 -19 -25 -34 -25 -75 0 -41 5 -56 25 -75 31 -32 101
-35 136 -5 28 22 14 27 -15 5 -45 -34 -96 -5 -96 53 l0 32 66 0 66 0 -7 28
c-11 45 -33 62 -82 62 -33 0 -50 -6 -68 -25z m98 8 c2 -5 7 -20 11 -35 6 -27
5 -28 -39 -28 -48 0 -56 11 -35 51 10 18 54 27 63 12z"/>
<path d="M3593 966 c24 -18 25 -153 1 -170 -12 -9 -4 -12 40 -12 31 -1 53 3
50 7 -3 5 -12 9 -21 9 -13 0 -15 11 -11 65 5 76 25 108 57 88 20 -13 31 -8 31
14 0 17 -51 17 -69 1 -11 -10 -14 -10 -18 0 -3 6 -21 12 -41 12 -33 -1 -35 -2
-19 -14z"/>
<path d="M4684 965 c-49 -34 -55 -124 -12 -165 34 -31 138 -23 138 11 0 6 -10
3 -22 -5 -28 -20 -62 -20 -77 -2 -35 42 -18 151 24 162 29 7 44 -1 55 -30 8
-18 9 -17 9 12 1 32 1 32 -47 32 -26 0 -57 -7 -68 -15z"/>
<path d="M4884 966 c-13 -11 -16 -18 -8 -26 7 -7 16 -5 29 10 20 23 45 26 63
8 16 -16 15 -58 0 -58 -36 0 -90 -24 -104 -45 -15 -23 -15 -27 0 -50 20 -30
69 -34 98 -8 17 15 18 15 18 0 0 -13 9 -17 43 -17 37 1 40 2 25 14 -14 10 -18
28 -18 77 0 87 -16 109 -79 109 -26 0 -56 -6 -67 -14z m96 -116 c0 -38 -42
-69 -65 -50 -31 26 -14 73 30 82 29 6 35 1 35 -32z"/>
<path d="M5404 966 c-13 -11 -16 -18 -8 -26 7 -7 16 -5 29 10 20 23 45 26 63
8 16 -16 15 -58 0 -58 -36 0 -90 -24 -104 -45 -15 -23 -15 -27 0 -50 19 -29
75 -35 96 -10 7 8 16 15 21 15 5 0 9 -7 9 -15 0 -11 11 -15 38 -15 33 1 35 2
20 14 -14 10 -18 28 -18 83 0 55 -4 73 -18 86 -23 21 -101 22 -128 3z m96
-116 c0 -38 -42 -69 -65 -50 -31 26 -14 73 30 82 29 6 35 1 35 -32z"/>
<path d="M5893 966 c24 -18 25 -153 1 -170 -12 -9 -4 -12 40 -12 35 0 50 3 41
9 -12 6 -15 29 -15 97 l0 90 -42 0 c-38 -1 -41 -2 -25 -14z"/>
<path d="M6055 955 c-20 -19 -25 -34 -25 -75 0 -41 5 -56 25 -75 31 -32 101
-35 136 -5 28 22 14 27 -15 5 -45 -34 -96 -5 -96 53 l0 32 65 0 c57 0 65 2 65
19 0 10 -9 30 -21 45 -29 36 -99 37 -134 1z m105 -11 c16 -40 13 -44 -35 -44
-48 0 -51 4 -35 44 7 19 17 26 35 26 18 0 28 -7 35 -26z"/>
<path d="M6857 969 c-29 -17 -50 -68 -43 -107 8 -54 41 -82 93 -82 45 0 83 14
83 30 0 5 -13 2 -28 -7 -39 -22 -76 -11 -92 27 -20 49 -9 60 65 60 39 0 65 4
65 10 0 20 -29 68 -45 74 -25 9 -78 7 -98 -5z m81 -11 c7 -7 12 -22 12 -35 0
-20 -5 -23 -40 -23 -43 0 -50 13 -30 51 12 21 40 25 58 7z"/>
<path d="M1745 854 c-70 -63 -162 -106 -241 -113 l-64 -6 66 -34 c107 -56 191
-180 259 -383 l34 -103 1 343 c0 188 -1 342 -2 342 -2 -1 -25 -21 -53 -46z"/>
<path d="M470 639 c-198 -114 -305 -146 -423 -126 l-47 8 0 -260 0 -261 214 0
214 0 -30 93 c-38 118 -46 220 -24 307 22 85 55 140 134 223 36 37 61 67 56
66 -5 -1 -47 -23 -94 -50z"/>
<path d="M4800 660 c-26 -4 -31 -7 -17 -12 13 -6 17 -20 17 -68 0 -55 -10 -75
-25 -50 -9 14 -77 12 -97 -4 -40 -30 -49 -103 -18 -153 17 -29 25 -33 62 -33
24 0 49 7 60 17 17 15 18 15 18 0 0 -13 9 -17 43 -16 37 0 39 2 20 11 -22 10
-23 17 -25 162 l-3 151 -35 -5z m-12 -160 c7 -14 11 -44 9 -68 -7 -68 -56
-105 -88 -66 -17 20 -17 111 0 142 17 31 61 27 79 -8z"/>
<path d="M3070 640 c-12 -7 -12 -13 -4 -27 16 -26 39 -22 39 6 0 27 -13 35
-35 21z"/>
<path d="M2395 630 c-81 -25 -72 -123 13 -150 50 -17 72 -38 72 -70 0 -30 -27
-60 -54 -60 -33 0 -76 30 -77 53 0 21 -1 21 -9 2 -14 -32 -11 -41 15 -53 42
-19 109 -15 139 9 22 17 26 29 26 68 0 56 -13 71 -85 98 -37 14 -51 24 -53 41
-8 55 70 74 107 26 l21 -27 0 26 c0 14 -3 28 -8 31 -18 11 -79 14 -107 6z"/>
<path d="M3445 575 c-3 -8 -7 -22 -10 -31 -3 -8 -9 -12 -15 -9 -5 3 -10 1 -10
-4 0 -6 7 -11 15 -11 12 0 15 -15 15 -78 0 -47 5 -83 12 -90 13 -13 88 -17 88
-4 0 5 -10 8 -22 8 -22 -1 -23 3 -26 82 -3 77 -2 82 18 82 11 0 20 4 20 9 0 5
-8 8 -17 7 -13 -1 -19 7 -21 27 -2 19 -9 27 -23 27 -11 0 -22 -7 -24 -15z"/>
<path d="M2614 528 c-27 -13 -44 -49 -44 -94 0 -56 44 -94 108 -94 69 0 102
33 102 102 0 68 -30 98 -97 97 -26 0 -58 -5 -69 -11z m100 -20 c9 -12 16 -43
16 -68 0 -25 -7 -56 -16 -68 -18 -26 -56 -29 -75 -6 -18 22 -18 126 0 147 19
24 57 21 75 -5z"/>
<path d="M2860 511 c-24 -24 -30 -38 -30 -73 0 -24 7 -53 15 -65 19 -27 78
-45 109 -33 24 9 54 40 38 40 -5 0 -15 -7 -22 -15 -17 -20 -53 -19 -73 3 -22
24 -23 110 -1 140 22 31 60 29 79 -5 l15 -28 -2 30 c-3 28 -6 30 -51 33 -41 3
-51 -1 -77 -27z"/>
<path d="M3053 526 c13 -10 17 -28 17 -86 0 -58 -4 -76 -17 -86 -16 -12 -11
-13 37 -13 48 0 53 1 38 13 -15 11 -18 29 -18 100 l0 86 -37 0 c-34 -1 -36 -2
-20 -14z"/>
<path d="M3224 525 c-71 -49 -47 -169 38 -189 30 -7 98 16 98 33 0 6 -13 3
-29 -7 -39 -22 -81 -8 -94 31 -16 48 -5 57 69 57 56 0 65 2 60 16 -3 9 -6 20
-6 25 0 5 -9 18 -20 29 -24 24 -86 27 -116 5z m84 -7 c7 -7 12 -22 12 -35 0
-21 -5 -23 -45 -23 -44 0 -44 0 -34 26 5 15 12 31 15 35 8 13 38 11 52 -3z"/>
<path d="M3585 520 c7 -8 30 -52 50 -97 l37 -82 -30 -55 c-23 -42 -26 -56 -16
-60 16 -6 22 4 94 169 29 66 60 125 68 131 11 8 7 10 -21 10 -20 -1 -32 -5
-28 -9 9 -9 -29 -117 -41 -117 -15 0 -49 95 -40 110 8 13 1 15 -39 15 -41 0
-46 -2 -34 -15z"/>
<path d="M4913 526 c13 -10 17 -28 17 -80 0 -90 10 -106 63 -106 24 0 49 6 55
12 10 10 14 10 21 0 8 -13 71 -13 71 0 0 4 -7 8 -15 8 -12 0 -15 17 -15 90 l0
90 -35 0 c-19 0 -35 -4 -35 -10 0 -5 7 -10 15 -10 19 0 21 -96 3 -135 -12 -26
-48 -42 -67 -30 -7 3 -11 44 -11 96 l0 89 -42 0 c-38 -1 -41 -2 -25 -14z"/>
<path d="M5340 511 c-24 -24 -30 -38 -30 -73 0 -54 20 -84 66 -97 40 -11 72
-2 94 25 14 18 14 18 -12 1 -58 -37 -98 -7 -98 73 0 83 61 123 95 63 l15 -28
-2 30 c-3 28 -6 30 -51 33 -41 3 -51 -1 -77 -27z"/>
<path d="M5553 528 c-25 -12 -29 -23 -13 -33 5 -3 18 3 30 15 35 35 80 20 80
-26 0 -19 -7 -24 -46 -30 -70 -10 -99 -47 -74 -95 14 -24 76 -26 102 -2 17 15
18 15 18 0 0 -13 9 -17 43 -16 37 0 40 2 20 11 -21 10 -23 18 -23 89 0 67 -3
80 -19 89 -25 13 -89 12 -118 -2z m97 -108 c0 -29 -11 -50 -30 -60 -28 -15
-50 -1 -50 30 0 30 13 45 45 52 27 6 35 1 35 -22z"/>
<path d="M5760 530 c0 -5 5 -10 10 -10 6 0 10 -33 10 -80 0 -65 -3 -81 -17
-89 -14 -8 -4 -10 42 -10 46 0 56 2 43 10 -14 8 -18 24 -18 72 0 67 18 107 49
107 32 0 41 -22 41 -97 0 -58 -3 -74 -17 -82 -14 -8 -4 -10 42 -10 46 0 56 2
43 10 -15 8 -18 24 -18 80 0 93 -9 109 -63 109 -24 0 -49 -6 -56 -12 -11 -10
-14 -10 -18 0 -5 14 -73 17 -73 2z"/>
<path d="M6070 511 c-54 -54 -36 -146 34 -169 32 -10 43 -10 72 4 19 9 34 21
34 26 0 6 -11 3 -25 -6 -58 -38 -101 0 -93 84 3 27 11 56 18 65 20 24 57 18
75 -12 l15 -28 -2 30 c-3 28 -6 30 -51 33 -41 3 -51 -1 -77 -27z"/>
<path d="M6289 527 c-40 -30 -53 -113 -24 -154 30 -43 117 -50 151 -12 20 22
7 25 -20 4 -45 -34 -96 -5 -96 53 l0 32 65 0 c59 0 65 2 65 20 0 35 -44 70
-87 70 -21 0 -45 -6 -54 -13z m91 -23 c16 -40 13 -44 -35 -44 -49 0 -56 10
-29 48 21 30 52 28 64 -4z"/>
<path d="M6470 530 c0 -5 7 -10 15 -10 24 0 21 -148 -2 -166 -16 -12 -9 -13
47 -13 49 0 59 3 43 9 -21 8 -23 16 -23 78 0 79 16 106 51 84 25 -16 29 -15
29 8 0 15 -7 20 -28 20 -15 0 -34 -6 -41 -12 -11 -10 -14 -10 -18 0 -5 14 -73
17 -73 2z"/>
<path d="M994 315 c1 -133 -15 -175 -96 -259 l-54 -56 478 0 478 0 0 63 0 62
-257 0 -258 0 -58 29 c-77 37 -158 121 -200 204 l-33 67 0 -110z"/>
</g>
</svg>
