<svg xmlns="http://www.w3.org/2000/svg" width="123.99" height="50.86" viewBox="0 0 123.99 50.86"><defs><style>.cls-1{fill:#fff;}</style></defs><title>Asset 3</title><g id="Layer_2" data-name="Layer 2"><g id="Layer_1-2" data-name="Layer 1"><path class="cls-1" d="M102.23,38.23c1-.15,2.42-.14,3.84-.46a10,10,0,0,1,7.7,1.58c.62.4.42.73.22,1.64-.17.72-.93,1-.82,1.34s.79.63,1.5,1q4.24,2,8.55,3.79c.54.23.68.44.71.95.16,2.84.18,2.82-2.68,2.82a3.78,3.78,0,0,1-1.83-.54A21.56,21.56,0,0,0,115,48.45c-3.45-.92-6.93-1.72-10.43-2.46a38.51,38.51,0,0,0-5.27-.65,8.92,8.92,0,0,0-2.55.32,7.9,7.9,0,0,1-6.13-.78,6.18,6.18,0,0,0-3.75-.61c-3.07.31-6.21.94-9.28.09-2.89-.8-5.92-.84-8.77-1.59-3.9-1-7.87-1.69-11.77-2.65a31.71,31.71,0,0,0-6-.92C46.89,39,42.93,40,39.88,43a9.31,9.31,0,0,1-9.47,2.55c-1.8-.46-3.24.26-4.71,1.06-1.14.62-2.49,1.5-3.59,2.18s-2,.19-3-.18a.56.56,0,0,1-.27-1,19.72,19.72,0,0,1,1.37-2c.58-.58.38-.95-.1-1.39A3.81,3.81,0,0,0,16,43.71c-1.87.74-3.64,1.74-5.43,2.65s-3.56,2-5.4,2.84c-1.31.62-3,1.25-4.12.11a2.51,2.51,0,0,1-1-2.6c0-.87.63-.89,1.21-1.07a18.43,18.43,0,0,0,6.23-3.27c1.4-1.09,2.73-2.28,4.21-3.23a7.65,7.65,0,0,1,7-.81,6.86,6.86,0,0,0,5.46,0,5.35,5.35,0,0,0,3.48-4.61,35.75,35.75,0,0,1,.83-4.6c.39-1.62,2.56-4.62,4.85-4.34a1.78,1.78,0,0,0,.95-.08,1.53,1.53,0,0,1,2,.38,2.76,2.76,0,0,0,3.07.68c.95-.3,1.9-.65,2.83-1a35,35,0,0,1,9-2.05,31.16,31.16,0,0,1,10.38-.13c.54.11,1.13,0,1.68,0,.85.1,1.68.3,2.52.44a7.05,7.05,0,0,0,1.2.16c1.85,0,3.71.09,5.55,0a17.34,17.34,0,0,0,3.55-.66c.34-.1.83-.67.79-1-.18-1.44.53-2.64.88-3.94a2.83,2.83,0,0,0-.5-2.73,27.29,27.29,0,0,1-3.37-6C72.82,6.84,72,4.91,71,3c-.44-.85-.1-1.66,0-2.48,0-.52.86-.71,1.41-.37a4,4,0,0,1,.67.63c1.3,1.27,1.36,1.32,2.52-.13.57-.72.94-.8,1.54-.15A50.29,50.29,0,0,1,84.68,10c1.51,2.66,3.28,5.09,6.47,5.66a6,6,0,0,1,3.36,2.27c1.32,1.54,2.61,3.11,3.81,4.74A3.45,3.45,0,0,1,98,27.36a12.48,12.48,0,0,1-2,1.59c-1.13.73-1.32,1.25-.87,2.46.22.55.42.18.62.74.29.8,1,2.53,1.23,3.34.58,1.85.83,3,3.28,2.74.56,0,1.13,0,2,0"/></g></g></svg>