<svg xmlns="http://www.w3.org/2000/svg" width="73.452" height="57.051" viewBox="0 0 73.452 57.051">
  <g id="Group_39391" data-name="Group 39391" transform="translate(-85.504 -101.75)">
    <path id="Path_4" data-name="Path 4" d="M51.227,0A10.818,10.818,0,1,0,62.044,10.818,10.818,10.818,0,0,0,51.227,0" transform="translate(76.854 101.75)" fill="#ffcd0a"/>
    <path id="Path_5" data-name="Path 5" d="M30.171,26.615S30.8,23.056,27.8,23.6a20.859,20.859,0,0,0-6.1,2.44C18.952,27.787,1.4,41.177.846,41.974c0,0-1.259,1.584-.706,2.746S1.612,48.2,1.612,48.2A2.154,2.154,0,0,1,1.476,49.9,8.444,8.444,0,0,0,1.4,53.83a8.883,8.883,0,0,0,4.062,5.5,11.722,11.722,0,0,0,6.429,1.718,44.018,44.018,0,0,0,8.236-1.971,12.13,12.13,0,0,0,1.772-.75s1.555-.92,3.389-2.223c3.258-2.314,7.624-5.733,7.885-6.112L33.111,51.4s-3.264,3.078-2.282,6.734a3.955,3.955,0,0,0,3.8,3.439s1.171.391,3.616-.983l2.445-1.372s.332-.259.89-.7c.655-.521,10.919-8.728,12.935-11.1a19.437,19.437,0,0,1,1,4.143s1.055,3.875,2.975,4.654a7.794,7.794,0,0,0,6.237.692,21.459,21.459,0,0,0,5.057-3.114c1.739-1.663,3.667-3.489,3.667-3.489l-1.993-4.827a33.839,33.839,0,0,1-3.7,3.411s-2.292,1.284-3.955-1.921c0,0-.422-.585-.419-3.336,0-3.131.027-4.6.027-4.6s-.162-3.266-3.119-2.662a10.17,10.17,0,0,0-4.039,2.038s-5.848,5.07-6.383,5.552-5.053,4.686-6.008,5.293a9.53,9.53,0,0,1-2.413,1.26l-.368-.472A222.965,222.965,0,0,1,62.771,27.348a5.4,5.4,0,0,0,2.175-4.37s-.293-2.612-5.146-1.144a36.094,36.094,0,0,0-8.274,5.294C47.9,30.368,29.483,46.931,29.3,47.155s-7.827,5.27-10.881,6.3a6.644,6.644,0,0,1-5.326.013S8.5,52.255,10.984,45.094a4.183,4.183,0,0,1,.362-.756,1.579,1.579,0,0,1,.369-.436c.356-.317.921-.811,1.636-1.423a101.2,101.2,0,0,1,11.671-8.861s4.737-2.681,4.944-4.3a23.734,23.734,0,0,0,.206-2.7" transform="translate(85.504 97.172)" fill="#fff"/>
  </g>
</svg>
