<svg xmlns="http://www.w3.org/2000/svg" xmlns:xlink="http://www.w3.org/1999/xlink" xml:space="preserve" version="1.1" style="shape-rendering:geometricPrecision;text-rendering:geometricPrecision;image-rendering:optimizeQuality;" viewBox="0 0 321.7 448.57500000000005" x="0px" y="0px" fill-rule="evenodd" clip-rule="evenodd"><defs><style type="text/css">
   
    .fil0 {fill:white}
   
  </style></defs><g><path class="fil0" d="M101.26 4.5l-1.27 1.04 -5.34 -0.84c-8.79,-1.37 -29.93,-3.78 -38.27,-4.34 -6.64,-0.46 -7.94,-0.45 -8.74,-0.06 -1.26,0.68 -1.82,1.62 -1.71,2.93 0.09,0.81 -0.05,1.2 -0.51,1.48 -1.82,1.26 -9.25,8.74 -13.66,13.82 -2.8,3.19 -8.21,9.37 -12.01,13.67 -8.73,9.85 -10.98,12.53 -15.72,18.6 -3.79,4.87 -4.56,6.36 -3.73,7.37 0.15,0.18 0.46,3.97 0.67,8.35 0.25,4.42 0.72,13.45 1.09,20.07 1.02,17.97 2.05,41.53 2.34,52.81 0.28,12.48 0.44,16.08 0.91,24.05 0.68,11.05 1.06,19.64 1.58,35.6 0.81,24 1.59,37.12 3.36,57.73 1.52,17.68 4.16,24.55 9.99,26.24 3.72,1.09 8.95,-2.11 18.72,-11.4 2.38,-2.27 6.1,-5.68 8.24,-7.57 2.14,-1.86 6.38,-5.79 9.38,-8.7 3.01,-2.9 9.22,-8.37 13.81,-12.16l8.34 -6.87 2.48 0.14c4.51,0.2 8.91,2.21 14.26,6.48 5.23,4.13 23.97,21.62 31.13,29.02 5.27,5.46 12.25,12.85 16.63,17.59 15.53,16.92 31.08,31.57 51.13,48.19 3.49,2.89 8.62,7.34 11.42,9.84 2.78,2.52 6.11,5.37 7.38,6.32 8.29,6.28 15.72,6.59 23.74,0.93 6.81,-4.78 18.6,-15.97 30.88,-29.32 9.65,-10.53 13.4,-13.87 28.19,-25.28 9.45,-7.25 13.77,-11.04 15.33,-13.45 1.79,-2.73 2.92,-5.18 3.48,-7.56 0.67,-2.89 3.87,-30.28 5.77,-49.2 1.24,-12.3 1.31,-13.76 0.96,-16.02 -0.25,-1.62 -0.69,-2.9 -1.25,-3.68 -0.47,-0.65 -6.17,-5.51 -12.65,-10.79 -6.49,-5.24 -14.29,-11.77 -17.33,-14.52 -8.22,-7.38 -35.09,-31.76 -41.05,-37.29 -9.03,-8.34 -21.72,-21.5 -21.42,-22.23 0.05,-0.17 1.88,-1.96 4.04,-4.01 10.82,-10.16 15.28,-15.43 17.5,-20.54 0.42,-0.96 1.78,-3.33 3.02,-5.2 1.25,-1.92 3.85,-6.16 5.79,-9.44 6.38,-10.74 12.98,-21.33 15.59,-24.98 3.6,-4.98 7.08,-10.81 7.7,-12.78 0.29,-0.93 0.78,-1.85 1.06,-2.03 0.25,-0.21 0.55,-0.88 0.61,-1.5 0.3,-3.2 -1.29,-3.95 -12.5,-5.78 -4,-0.65 -9.3,-1.62 -11.71,-2.11 -4.7,-0.98 -15.86,-3.01 -17.18,-3.13 -0.72,-0.07 -0.78,-0.18 -0.52,-1.15l0.26 -1.04 -1.02 0.97c-0.99,0.9 -1.12,0.92 -2.99,0.61 -1.08,-0.17 -6.03,-0.94 -10.99,-1.68 -10.66,-1.64 -10.63,-1.64 -10.12,-2.42 0.66,-0.94 0.07,-1.09 -0.97,-0.26l-0.97 0.77 -6.14 -1.31c-3.39,-0.69 -9.71,-2.12 -14.07,-3.17 -4.33,-1.05 -8.99,-2.09 -10.36,-2.35 -1.34,-0.26 -2.51,-0.57 -2.56,-0.74 -0.09,-0.14 0.06,-0.66 0.27,-1.14 0.66,-1.34 0.2,-1.38 -1.08,-0.14l-1.18 1.16 -11.89 -2.67c-24.8,-5.51 -53.94,-11.64 -60.53,-12.74 -1.61,-0.25 -3.44,-0.59 -4.02,-0.75 -1.04,-0.26 -1.04,-0.26 -0.46,-1.17 1.06,-1.66 0.64,-1.77 -1.13,-0.27l0 0zm-45.75 2.67c1.73,0.27 3.17,0.57 3.16,0.67 -0.01,0.13 -6.99,7.69 -14.62,15.85 -2.04,2.17 -6.61,6.83 -10.17,10.35 -7.42,7.38 -10.2,10.38 -15.41,16.81l-3.77 4.66 -3.6 -0.24c-3.04,-0.22 -3.57,-0.34 -3.36,-0.72 0.28,-0.54 6.35,-7.35 22.23,-24.88 10.48,-11.55 17.45,-19.74 19.21,-22.53 0.59,-0.88 0.76,-0.96 1.87,-0.73 0.69,0.14 2.69,0.46 4.45,0.76l0.01 0zm14.97 1.76l3.01 0.52 -1.94 1.84c-1.9,1.78 -4.07,4.04 -16.38,16.95 -3.29,3.45 -7.83,8.11 -10.07,10.36 -4.27,4.28 -14.62,15.45 -15.8,17.07 -0.66,0.93 -0.76,0.92 -4.01,0.85 -5.61,-0.14 -5.66,0.39 0.65,-6.5 26.22,-28.62 30.85,-33.94 34.87,-40.15l1.25 -1.94 2.7 0.25c1.52,0.15 4.08,0.49 5.72,0.75l0 0zm20.55 2.61l1.86 0.38 -0.63 0.71c-0.37,0.36 -2.66,2.81 -5.1,5.37 -2.48,2.59 -8.01,8.62 -12.33,13.44 -7.04,7.88 -10.82,12.28 -19.62,22.93l-2.81 3.39 -2.88 -0.17c-1.59,-0.12 -2.87,-0.27 -2.86,-0.37 0.01,-0.1 1.5,-1.82 3.28,-3.78 1.82,-1.96 5.53,-6.3 8.3,-9.6 2.78,-3.3 7.69,-9.09 10.98,-12.87 10.62,-12.33 15.05,-18.6 13.23,-18.78 -0.59,-0.05 -7.94,6.2 -11.54,9.79 -5,4.98 -14.84,16 -19.85,22.18 -5.02,6.21 -10.52,12.61 -11.19,12.98 -0.45,0.25 -4.85,-0.1 -4.82,-0.39 0.01,-0.1 0.65,-0.84 1.42,-1.63 8.09,-8.12 33.75,-37.17 38.82,-43.91l1.22 -1.64 6.32 0.8c3.48,0.46 7.16,0.98 8.2,1.17l0 0zm11.72 1.78c-0.01,0.1 -1.3,1.41 -2.88,2.96 -7.37,7.12 -27.45,29.01 -34.15,37.16 -2.6,3.18 -4.11,4.77 -4.62,4.82 -0.44,0.09 -1.56,0.01 -2.52,-0.14l-1.7 -0.26 3.57 -3.66c1.96,-2.01 5.03,-5.25 6.81,-7.17 3.86,-4.23 21.31,-24.6 26.09,-30.47l3.39 -4.17 3 0.38c1.67,0.23 3.01,0.49 3.01,0.55l0 0zm8.44 1.47c0.68,0.2 0.53,0.42 -1.92,2.71 -9.02,8.43 -27.62,28.03 -34.61,36.45l-3.88 4.73 -1.35 -0.13c-1.26,-0.12 -1.32,-0.16 -0.83,-0.75 0.29,-0.3 3.21,-3.65 6.46,-7.44 16.67,-19.15 25.43,-29.36 28.21,-32.76l3.05 -3.74 2.06 0.37c1.15,0.17 2.39,0.42 2.81,0.56l0 0zm7.2 1.35c0.22,0.09 -1.16,1.72 -3.42,4.04 -9.4,9.62 -33.38,37.16 -33.51,38.51 -0.03,0.3 -3.97,0.46 -4.24,0.17 -0.09,-0.11 0.59,-1.01 1.52,-1.99 0.89,-0.98 5.14,-5.8 9.4,-10.69 4.3,-4.91 9.53,-10.91 11.69,-13.36 4.29,-4.92 9.95,-11.87 12.47,-15.36l1.65 -2.24 1.99 0.36c1.12,0.2 2.23,0.44 2.45,0.56l0 0zm7.35 1.46l0.9 0.29 -2.29 2.44c-3.04,3.24 -17.85,20.41 -21.02,24.3 -1.36,1.7 -4.5,5.73 -7.01,8.99l-4.49 5.89 -2.49 -0.07c-1.36,-0.03 -2.52,-0.07 -2.58,-0.11 -0.06,-0.07 1.4,-1.8 3.23,-3.89 9.65,-10.86 23.46,-27.59 28.61,-34.59l2.91 -3.95 1.65 0.19c0.92,0.12 2.09,0.34 2.58,0.51zm8.72 1.73c1.17,0.25 2.22,0.48 2.34,0.59 0.12,0.08 -1.18,1.59 -2.88,3.35 -5.53,5.67 -16.93,18.8 -22.54,25.95 -5.79,7.34 -8.68,10.83 -9.28,11.17 -0.35,0.23 -5.81,-0.19 -5.78,-0.42 0,-0.06 1.61,-1.87 3.58,-4.05 4.12,-4.57 21,-25.2 24.7,-30.24 1.38,-1.89 3.08,-4.33 3.78,-5.43l1.22 -1.98 1.37 0.33c0.75,0.17 2.31,0.49 3.49,0.73l0 0zm9.82 2.07c0.43,0.04 -0.45,1.22 -3.38,4.43 -6.77,7.45 -11.78,13.56 -25.08,30.64l-3.75 4.8 -2.24 -0.21c-1.26,-0.12 -2.27,-0.29 -2.26,-0.38 0,-0.1 1.58,-1.95 3.48,-4.1 9.61,-10.8 21.48,-25.05 26.32,-31.51 1.22,-1.62 2.48,-3.29 2.79,-3.7 0.49,-0.65 0.73,-0.69 2.03,-0.37 0.81,0.18 1.76,0.37 2.09,0.4l0 0zm7.24 1.52c1.38,0.26 2.51,0.6 2.5,0.73 -0.02,0.14 -1.1,1.4 -2.37,2.81 -6.64,7.25 -17.43,21.31 -22.98,29.96l-4.07 6.37 -4.09 -0.38c-3,-0.29 -4.04,-0.49 -3.85,-0.74 0.15,-0.22 1.41,-1.53 2.81,-2.99 1.4,-1.43 3.52,-3.79 4.73,-5.24 3.64,-4.35 15.8,-20.6 21.34,-28.53 1.77,-2.49 2.18,-2.89 2.76,-2.7 0.35,0.13 1.82,0.47 3.22,0.71zm8.48 1.83c1.41,0.27 2.52,0.51 2.51,0.58 0,0.03 -1.64,1.87 -3.62,4.08 -5.9,6.49 -14.94,18.25 -22.67,29.56l-3.4 4.94 -2.11 -0.2c-1.16,-0.11 -2.1,-0.3 -2.09,-0.44 0.01,-0.09 0.51,-0.84 1.12,-1.62 5.4,-7.07 22.37,-31.62 25.35,-36.66 0.63,-1.04 0.84,-1.19 1.59,-0.95 0.45,0.14 1.95,0.45 3.32,0.71l0 0zm8.74 1.93l0.84 0.28 -2.32 2.64c-1.27,1.48 -4.18,5.13 -6.46,8.14 -2.28,3.02 -6.66,8.79 -9.74,12.86 -3.11,4.03 -6.64,8.95 -7.86,10.87l-2.23 3.54 -1.59 -0.15c-0.85,-0.08 -1.57,-0.25 -1.55,-0.41 0.01,-0.13 0.59,-0.94 1.3,-1.81 0.68,-0.83 3.51,-4.76 6.25,-8.69 2.77,-3.96 7.15,-10.14 9.76,-13.72 2.6,-3.61 5.87,-8.26 7.27,-10.35l2.53 -3.82 1.48 0.14c0.82,0.11 1.87,0.31 2.32,0.48l0 0zm5.74 1.55c-0.07,0.09 -2.03,2.8 -4.36,5.94 -6.03,8.18 -12.71,17.83 -17.51,25.29l-4.1 6.44 -1.8 -0.07 -1.79 -0.07 1.11 -1.16c3.33,-3.51 12.75,-16.43 22.89,-31.38 1.86,-2.75 3.51,-5.15 3.7,-5.34 0.33,-0.33 2.07,-0.03 1.86,0.35l0 0zm6.24 0.96l1.12 0.1 -0.84 1.15c-6.12,8.28 -19.88,28.8 -23.11,34.45 -0.76,1.26 -1.56,2.35 -1.83,2.42 -0.27,0.08 -1.26,-0.05 -2.14,-0.3l-1.65 -0.42 2.55 -3.75c5.18,-7.63 15.85,-23.92 19.1,-29.07l3.3 -5.32 1.21 0.32c0.65,0.16 1.69,0.36 2.29,0.42l0 0zm8.14 1.8c1.63,0.39 2.99,0.82 2.98,0.92 -0.01,0.13 -0.32,0.57 -0.69,0.96 -2.34,2.51 -13.39,18.27 -22.76,32.55l-2.48 3.69 -1.17 -0.31c-0.65,-0.16 -1.83,-0.37 -2.59,-0.44l-1.45 -0.14 1.43 -2.13c2.94,-4.24 18.24,-30.11 20.65,-34.81 0.74,-1.49 0.81,-1.52 1.92,-1.25 0.61,0.16 2.5,0.6 4.16,0.96l0 0zm9.21 2.21c1.5,0.34 2.8,0.7 2.86,0.77 0.06,0.07 -0.14,0.39 -0.43,0.66 -3.11,2.93 -18.01,22.78 -22.98,30.63l-3.13 4.93 -2.05 -0.2c-1.15,-0.11 -2.06,-0.29 -2.05,-0.46 0.01,-0.13 0.44,-0.72 0.93,-1.34 3.15,-3.8 14.63,-21.58 19.98,-30.92 3.11,-5.43 2.51,-5.09 6.87,-4.07l0 0zm8.54 1.97c1.01,0.2 1.85,0.48 1.84,0.55 -0.01,0.09 -1.61,2.21 -3.54,4.72 -7.96,10.19 -19.23,26.13 -21.41,30.25 -0.46,0.89 -0.63,0.97 -1.88,0.82 -0.72,-0.11 -1.74,-0.3 -2.22,-0.48l-0.87 -0.28 1.75 -2.33c2.9,-3.89 15.33,-22.28 19.21,-28.4 3.41,-5.4 3.64,-5.71 4.42,-5.5 0.45,0.14 1.65,0.42 2.7,0.65l0 0zm9.6 1.91l1.34 0.3 -3.03 3.11c-6.9,7.09 -17.74,21.04 -23.47,30.15l-1.41 2.26 -1.56 -0.35c-0.85,-0.15 -1.63,-0.35 -1.69,-0.42 -0.07,-0.04 0.49,-0.69 1.2,-1.42 3.13,-3.17 7.71,-9.72 19.7,-28.02 2.07,-3.19 3.93,-5.95 4.11,-6.13 0.33,-0.33 1.48,-0.19 4.81,0.52l0 0zm8.58 1.49c0.06,0.07 -1.22,1.61 -2.86,3.42 -6.48,7.24 -17.23,20.93 -21.8,27.71l-3.11 4.67 -1.33 -0.36c-0.75,-0.17 -1.39,-0.4 -1.42,-0.44 -0.06,-0.07 0.4,-0.72 1.01,-1.5 1.91,-2.25 19.99,-26.85 22.59,-30.7l2.44 -3.63 2.19 0.34c1.19,0.18 2.23,0.41 2.29,0.49zm8.78 1.43c0.03,0.04 -1.03,1.4 -2.38,2.97 -6.83,8.1 -24.49,31.12 -25.29,32.94 -0.21,0.41 -4.25,-0.5 -4.11,-0.92 0.09,-0.19 1.89,-2.75 4,-5.65 10.63,-14.5 17.45,-23.97 19.54,-27.03l2.28 -3.38 2.95 0.52c1.64,0.29 2.98,0.51 3.01,0.55l0 0zm6.48 0.81l1.91 0.19 -1.96 1.77c-2.84,2.53 -5.97,5.76 -9.22,9.48 -4.6,5.29 -13.02,15.83 -16.37,20.54 -1.84,2.62 -3.34,4.41 -3.71,4.44 -1.59,0.18 -1.43,-0.37 1.1,-3.55 2.68,-3.34 18.5,-24.47 21.38,-28.53 0.89,-1.28 2.08,-2.96 2.58,-3.68 0.77,-1.12 1.09,-1.33 1.64,-1.11 0.38,0.14 1.56,0.35 2.65,0.45l0 0zm8.95 1.39l1.7 0.39 -2.34 2.14c-1.31,1.18 -3.77,3.64 -5.51,5.5 -5.19,5.53 -19.59,22.94 -22.75,27.53 -0.7,1.03 -1.09,1.33 -1.75,1.26 -1.82,-0.17 -1.78,-0.56 0.4,-3.49 1.11,-1.52 3.37,-4.64 5.01,-6.91 2.62,-3.68 18.19,-24.03 20.07,-26.22 0.78,-0.89 1.72,-0.93 5.17,-0.2zm9.93 2.04c0.48,0.21 0.13,0.74 -2.25,3.31 -4.27,4.69 -24.42,27.94 -26.69,30.85l-2.01 2.54 -2.15 -0.41c-1.18,-0.24 -2.16,-0.44 -2.19,-0.47 -0.03,-0.04 1.13,-1.42 2.56,-3.12 4.42,-5.14 18.22,-22.53 22.57,-28.41l4.09 -5.57 2.75 0.5c1.54,0.28 3.03,0.62 3.32,0.78l0 0zm7.47 1.27c0.09,0.08 -0.36,0.64 -0.95,1.21 -10.9,10.65 -22.54,23.92 -28.28,32.16l-2.44 3.53 -1.44 -0.24c-0.78,-0.14 -1.47,-0.3 -1.53,-0.37 -0.06,-0.08 0.48,-0.79 1.19,-1.62 3.13,-3.57 21.86,-26.91 24.91,-31.02l3.33 -4.51 2.56 0.35c1.38,0.19 2.59,0.44 2.65,0.51zm7.44 1.18c0.63,0.06 1.11,0.24 1.09,0.4 -0.07,0.76 -3.49,4.83 -6.08,7.24 -6.02,5.56 -13.77,13.94 -23.48,25.36 -4.01,4.75 -4.12,4.87 -5.09,4.55 -1.48,-0.48 -1.5,-0.68 -0.06,-2.14 1.7,-1.77 20.25,-24.7 23.76,-29.39 1.49,-1.99 3.18,-4.36 3.76,-5.27l1.06 -1.66 1.96 0.42c1.11,0.2 2.48,0.43 3.08,0.49zm-10.83 18.67c-0.58,0.91 -4,6.78 -7.59,13.03 -3.62,6.24 -6.61,11.42 -6.68,11.48 -0.08,0.05 -0.85,-0.58 -1.7,-1.4 -0.86,-0.81 -1.72,-1.56 -1.91,-1.64 -0.19,-0.09 0.77,-1.46 2.15,-3.06 1.38,-1.57 5.67,-6.75 9.51,-11.48 3.88,-4.72 7.08,-8.58 7.14,-8.57 0.07,0.01 -0.37,0.76 -0.92,1.64zm-130.13 7.37c16.19,2.27 50.19,7.73 58.68,9.44 1.79,0.34 7.54,1.55 12.72,2.67 5.22,1.13 13.15,2.78 17.63,3.67 14.59,2.96 16.95,3.68 18.93,5.96 1.11,1.27 1.19,1.51 0.9,2.48 -0.52,1.55 -2.66,4.81 -4.79,7.3 -2.62,3.05 -10.78,10.86 -18.31,17.54 -16.57,14.66 -21.34,19.33 -28.12,27.64 -4.03,4.94 -6.39,8.45 -7.8,11.71 -0.59,1.34 -0.67,1.77 -0.35,1.99 0.21,0.19 0.57,0.26 0.81,0.22 0.27,-0.08 0.31,0.56 0.16,2.11 -0.43,4.15 0.52,5.41 11.22,14.64 7.23,6.25 43.4,35.74 49.89,40.69 4.65,3.53 10.92,8.69 16.98,13.96 5.59,4.86 22.99,21.45 28.22,26.94 7.54,7.87 14.79,17.75 14.59,19.86 -0.11,1.12 -3.68,4.38 -10.02,9.13 -18.14,13.62 -23.33,18.22 -33.77,29.64 -9.14,10.02 -21.43,21.73 -27,25.69 -1.61,1.18 -3.9,2.49 -5.07,2.95 -1.83,0.69 -2.41,0.77 -3.67,0.45 -2.29,-0.52 -4.84,-2.39 -10.87,-7.92 -3.03,-2.75 -8.04,-7.12 -11.16,-9.65 -19.7,-16.12 -36.77,-31.98 -53.12,-49.35 -15.57,-16.52 -20.19,-21.18 -28.25,-28.51 -19.63,-17.87 -26.29,-22.43 -35.33,-24.29l-2.02 -0.42 -0.04 -1.37c-0.04,-0.94 -0.31,-1.66 -0.85,-2.21 -0.88,-0.92 -1.45,-0.91 -2.01,0.11 -0.24,0.37 -1.42,1.29 -2.69,2 -5.09,2.85 -14.6,9.4 -18.7,12.9 -2.42,2.04 -6.76,6.02 -9.69,8.87 -2.97,2.81 -7.31,6.83 -9.67,8.9 -2.39,2.07 -6.18,5.53 -8.42,7.72 -3.88,3.76 -9.27,8.24 -9.86,8.18 -0.63,-0.06 -1.72,-4.02 -2.36,-8.41 -0.39,-2.6 -1.11,-9.39 -1.57,-15.09 -1.85,-22.55 -2.1,-26.53 -3.18,-54.06 -0.35,-8.92 -0.98,-21.92 -1.41,-28.92 -0.8,-13.32 -0.85,-14.89 -1.29,-30.24 -0.53,-18.26 -2.12,-41.74 -4.41,-64.59 -0.55,-5.77 -0.96,-10.54 -0.89,-10.6 0.07,-0.06 3.17,0.3 6.87,0.85 8.05,1.13 12.75,1.45 52.76,3.42 26.87,1.35 44.42,2.92 66.33,6l0 0zm91.49 59.85l0.91 0.99 -0.91 5.33c-2.01,12.13 -3.25,22.03 -4.41,35.23 -0.65,7.56 -1.21,13.76 -1.27,13.76 -0.04,-0.01 -1.21,-0.95 -2.63,-2.08l-2.57 -2.08 0.88 -3.34c0.51,-1.82 1.25,-5.44 1.73,-8.06 1.26,-7.3 3.62,-29.64 3.72,-35.26l0.09 -4.78 1.16 -0.99c1.27,-1.08 1.11,-1.16 3.3,1.28zm-10.4 27.93l-1.99 21.98 -2.42 -1.93 -2.41 -1.92 0.37 -1.8c1.65,-8.2 3.81,-27.83 3.69,-33.2l-0.07 -3.13 2.46 -2.43 2.49 -2.43 -0.06 1.43c-0.01,0.8 -0.95,11.36 -2.06,23.43l0 0zm17.07 -21.41l0.87 1.09 -1.86 16.39c-2.65,23.35 -3.8,35.75 -3.32,35.96 1.25,0.56 3.66,-13.63 6.09,-35.69l1.6 -14.43 1.5 1.41 1.5 1.41 -2.05 19.77c-1.13,10.88 -2.25,22.98 -2.49,26.89 -0.27,3.9 -0.51,7.14 -0.51,7.17 -0.04,0.06 -10.86,-8.72 -11.22,-9.12 -0.03,-0.03 0.14,-0.75 0.42,-1.56 0.84,-2.61 2.76,-11.95 4.13,-19.97 0.93,-5.64 1.59,-11.17 2.35,-19.52 0.98,-11.05 1.04,-11.61 1.57,-11.26 0.31,0.19 0.95,0.85 1.42,1.46l0 0zm-24.43 17.59c-0.65,6.86 -1.25,14.15 -1.31,16.18 -0.09,2.05 -0.25,3.74 -0.38,3.72 -0.14,-0.01 -1.32,-0.89 -2.58,-1.97l-2.34 -1.96 0.47 -2.51c1.33,-7.33 2.77,-16.55 3.02,-19.19l0.29 -3 1.77 -1.86c0.96,-1.04 1.84,-1.85 2.01,-1.87 0.13,0.01 -0.3,5.63 -0.95,12.46l0 0zm34.94 -7.33c0.76,0.77 1.46,1.5 1.54,1.64 0.09,0.14 0.04,2.03 -0.09,4.15 -0.37,5.26 -4.07,49.1 -4.14,49.2 -0.01,0.03 -1.19,-0.85 -2.61,-2.01 -1.88,-1.55 -2.49,-2.2 -2.31,-2.62 0.47,-1.09 2.69,-19.61 4.3,-35.5 0.92,-8.93 1.71,-16.25 1.78,-16.24 0.06,0 0.77,0.64 1.53,1.38l0 0zm6.84 6.44l1.65 1.55 -2.31 24.74c-1.27,13.63 -2.29,25.45 -2.23,26.25 0.05,1.24 0,1.43 -0.35,1.2 -0.4,-0.31 -4.95,-3.97 -5.16,-4.15 -0.4,-0.37 6.22,-51.16 6.65,-51.12 0.07,0 0.87,0.71 1.75,1.53zm-49.88 3.81c-0.36,3.76 -0.62,7.86 -0.6,9.1l0.05 2.3 -1.91 -1.65c-1.05,-0.86 -2.45,-2.2 -3.12,-2.89l-1.18 -1.28 0.85 -3.68 0.85 -3.68 2.15 -1.96c1.17,-1.08 2.35,-2.24 2.64,-2.58 0.27,-0.3 0.59,-0.57 0.72,-0.56 0.1,0.01 -0.09,3.09 -0.45,6.88l0 0zm58.32 4.11c0.11,0.18 -0.12,2.65 -0.52,5.44 -0.86,5.94 -2.77,26.4 -3.52,37.78 -0.28,4.36 -0.56,7.96 -0.6,7.99 -0.03,0.03 -1.37,-0.96 -2.95,-2.21l-2.88 -2.27 0.33 -1.36c0.77,-3.19 2.41,-12.42 3.65,-20.53 0.75,-4.78 1.74,-11.28 2.24,-14.43 0.5,-3.14 0.97,-7.43 1.03,-9.52l0.13 -3.75 1.44 1.24c0.77,0.67 1.5,1.41 1.65,1.62l0 0zm4.9 4.43l1.35 1.26 -0.52 4.04c-1.37,10.55 -3.11,35.55 -3.04,43.18 0.02,1.9 -0.04,3.56 -0.12,3.75 -0.05,0.16 -1.37,-0.67 -2.85,-1.87l-2.76 -2.16 0.45 -2.62c0.27,-1.44 1.04,-7.06 1.72,-12.48 0.68,-5.43 1.65,-12.53 2.19,-15.77 0.51,-3.25 1.17,-8.78 1.44,-12.28 0.26,-3.47 0.53,-6.34 0.63,-6.33 0.1,0.01 0.78,0.61 1.51,1.28l0 0zm7.98 7.44c0.15,0.22 -0.09,2.36 -0.55,5.11 -0.63,3.8 -0.97,8.06 -1.64,21.15 -0.46,9 -0.87,18.22 -0.89,20.48 -0.01,2.26 -0.09,4.15 -0.2,4.24 -0.11,0.12 -0.68,-0.23 -1.23,-0.75 -0.55,-0.48 -1.78,-1.57 -2.73,-2.42l-1.69 -1.49 0.66 -2.7c1.53,-6.28 2.59,-13.94 3.99,-28.71 0.83,-8.34 1.4,-15.74 1.34,-16.48l-0.15 -1.28 1.41 1.23c0.77,0.67 1.53,1.41 1.68,1.62l0 0zm6.23 6.22c0.08,0.91 -1.15,20.23 -2.12,32.82 -1.05,13.48 -1.03,18.87 -0.01,18 1.01,-0.84 3.63,-25.22 4.35,-40.89 0.21,-4.34 0.42,-7.95 0.49,-7.97 0.07,-0.06 1.03,0.73 2.2,1.74l2.06 1.82 -0.36 3.73c-0.19,2.01 -0.52,7.57 -0.7,12.31 -0.19,4.75 -0.62,12.43 -0.92,17.06 -0.34,4.62 -0.69,10.71 -0.76,13.54 -0.06,2.79 -0.19,5.14 -0.29,5.19 -0.07,0.06 -1.67,-1.39 -3.59,-3.2 -1.89,-1.84 -4.55,-4.29 -5.87,-5.48l-2.43 -2.13 0.29 -1.3c1.22,-5.41 2.21,-13.41 3.42,-28.24 0.75,-8.94 1.32,-17.11 1.33,-18.21l-0.01 -1.96 1.41 1.26c0.8,0.68 1.45,1.54 1.51,1.91l0 0zm13.15 22.05c-0.83,10.87 -1.84,29.88 -1.9,36.46 -0.03,2.1 -0.08,4.32 -0.13,4.92l-0.1 1.05 -3.33 -3.21c-2.04,-1.99 -3.21,-3.37 -3.02,-3.55 0.7,-0.73 1.78,-7.85 3.59,-23.45 1.8,-15.41 2.23,-20.66 2.05,-24.4l-0.06 -1.47 1.85 1.6 1.85 1.58 -0.8 10.47 0 0zm6.26 -5.99c0.8,0.74 0.79,0.84 0.41,4.76 -0.21,2.21 -0.53,8.04 -0.73,12.98 -0.2,4.91 -0.54,12.3 -0.73,16.4 -0.19,4.11 -0.38,10.35 -0.45,13.91 -0.07,3.55 -0.19,6.5 -0.26,6.56 -0.11,0.06 -1.21,-0.95 -2.52,-2.2l-2.34 -2.32 0.34 -1.47c1.47,-6.75 1.9,-10.23 3.37,-27.8 0.87,-10.17 1.52,-19.19 1.51,-20.09 -0.06,-1.77 0.18,-1.91 1.4,-0.73zm5.57 4.45c1.29,1.09 1.32,1.19 1.31,3.39 0.01,1.23 -0.1,3.48 -0.25,5 -0.37,3.96 -1.76,35.41 -1.74,39.34 0.08,7.3 0.31,9.42 1.06,8.82 0.08,-0.09 0.55,-1.51 1.01,-3.2 1.45,-5.45 3.9,-35.54 3.62,-44.48 -0.06,-1.41 -0.1,-3.11 -0.13,-3.81l-0.05 -1.27 1.56 1.08 1.56 1.08 -0.5 5.28c-1.54,16.19 -2.94,36.56 -3.32,47.91l-0.15 3.68 -3.58 -4.04c-1.95,-2.21 -4.18,-4.69 -4.9,-5.49l-1.3 -1.42 0.79 -3.72c1.77,-8.52 4.08,-41.85 3.37,-48.37 -0.13,-1.14 0,-1.13 1.64,0.22l0 0zm13.46 9.67l1.71 1.19 -0.33 1.37c-1.77,7.49 -2.43,12.32 -4.67,33.84l-2.33 22.37 -1.08 -1.6 -1.08 -1.6 0.58 -2.9c0.87,-4.31 2.83,-19.3 3.6,-27.42 0.71,-7.45 1.7,-23.53 1.58,-25.41 -0.04,-0.57 0,-1.06 0.1,-1.05 0.1,0 0.95,0.55 1.92,1.21l0 0z"/><path class="fil0" d="M222.87 106.01c-0.79,0.59 -3.61,2.62 -6.25,4.5 -5.57,3.96 -28.01,21.97 -30.44,24.4 -1.99,2.01 -2.81,3.33 -2.64,4.31 0.14,1.01 1.43,1.43 2.81,0.9 3.04,-1.15 21.57,-15.79 28.82,-22.79 5.17,-4.97 9.83,-10.62 9.97,-12.03 0.06,-0.66 -0.8,-0.38 -2.27,0.71l0 0z"/><path class="fil0" d="M17.47 88.72c-0.29,0.61 -0.68,11.32 -0.43,12.18 0.46,1.54 2.4,1.06 2.56,-0.59 0.1,-1.09 -0.84,-11.2 -1.09,-11.72 -0.22,-0.45 -0.76,-0.37 -1.04,0.13z"/><path class="fil0" d="M200.37 114.09c-1.78,1.23 -4.93,3.59 -7.05,5.26 -3.1,2.5 -3.81,3.23 -3.77,3.9 0.07,1.7 1.18,1.27 4.8,-1.81 3.62,-3.12 9.8,-8.92 9.83,-9.28 0.06,-0.56 -0.89,-0.09 -3.81,1.93z"/><path class="fil0" d="M93.46 102.33c-4.32,0.19 -13.14,1.25 -13.57,1.61 -0.69,0.57 -0.41,1.49 0.48,1.58 0.4,0.04 3.27,-0.42 6.36,-1.03 3.08,-0.6 6.27,-1.23 7.08,-1.36 0.78,-0.12 1.37,-0.37 1.29,-0.54 -0.12,-0.21 -0.27,-0.32 -0.4,-0.34 -0.14,0.02 -0.68,0.07 -1.24,0.08l0 0z"/><path class="fil0" d="M101.95 112.76c-4.8,0.74 -12.5,1.28 -16.35,1.14 -2.16,-0.07 -3.53,0.03 -3.79,0.27 -0.66,0.64 -0.38,1.9 0.54,2.45 1.6,0.95 14.31,-0.73 20.93,-2.77 2.78,-0.9 3.8,-1.5 2.48,-1.56 -0.34,0 -2.05,0.2 -3.81,0.47l0 0z"/><path class="fil0" d="M20 115.72c-0.5,0.62 -0.16,17.39 0.65,33.01 0.24,4.89 0.54,12.27 0.61,16.4 0.26,14.07 1.7,37.11 2.77,44 0.69,4.36 1.7,5.65 3.23,4.23 1.24,-1.14 1.27,-4.57 0.13,-26.54 -0.39,-7.53 -0.8,-16.16 -0.88,-19.19 -0.46,-15.75 -2.89,-38.88 -5.1,-48.58 -0.72,-3.23 -1.03,-3.86 -1.41,-3.33l0 0z"/><path class="fil0" d="M111.14 124.65c-15.73,1.57 -27.4,2.89 -28.2,3.21 -0.55,0.21 -1.12,0.66 -1.22,0.98 -0.36,0.93 0.1,2.08 0.91,2.35 0.83,0.31 20.05,-2.62 25.36,-3.88 8.47,-1.95 10.1,-3.36 3.15,-2.66l0 0z"/><path class="fil0" d="M125.99 136.51c-4.97,0.39 -25.74,2.18 -48.66,4.2 -4.53,0.4 -8.44,0.89 -8.69,1.1 -0.65,0.54 -0.28,1.47 0.72,1.83 2.77,1 34.27,-2 53.8,-5.1 3.62,-0.59 7.57,-1.18 8.82,-1.36 2.43,-0.33 2.81,-0.9 0.76,-1.03 -0.66,-0.06 -3.7,0.12 -6.75,0.36l0 0z"/><path class="fil0" d="M111.88 157.17c-1.27,0.04 -6.93,0.37 -12.56,0.77 -10.01,0.68 -11.4,0.91 -11.51,2.03 -0.05,0.57 0.95,1.59 1.64,1.66 0.3,0.03 5.49,-0.61 11.52,-1.4 13.21,-1.78 15.6,-2.02 17.87,-1.8 1.75,0.17 2.35,-0.21 1.07,-0.7 -1.03,-0.36 -5.23,-0.66 -8.03,-0.56z"/><path class="fil0" d="M33.49 155.88c-0.87,0.71 -0.57,21.78 0.36,25.96 0.3,1.39 1.46,2.17 2.63,1.78 1.82,-0.63 1.76,-2.76 -0.61,-16.77 -0.82,-4.7 -1.53,-9.09 -1.57,-9.7 -0.09,-1.14 -0.38,-1.6 -0.81,-1.27l0 0z"/><path class="fil0" d="M114.31 175.34c-2.67,0.44 -8.27,1.18 -11.53,1.53 -1.27,0.11 -1.96,0.35 -1.99,0.68 -0.03,0.26 0.08,0.47 0.22,0.49 0.99,0.09 16.84,-2.53 17.24,-2.86 0.4,-0.33 -1.51,-0.24 -3.94,0.16l0 0z"/><path class="fil0" d="M160.68 200.81c-2.28,0.22 -3.11,0.87 -2.31,1.85 0.45,0.54 0.72,0.53 3.56,-0.33 1.68,-0.51 3.25,-0.89 3.45,-0.87 0.2,0.02 0.38,-0.13 0.39,-0.3 0.04,-0.43 -2.54,-0.6 -5.09,-0.35l0 0z"/><path class="fil0" d="M174.16 214.47c-1.57,0.09 -3.67,0.09 -4.69,-0.01 -1.92,-0.15 -2.96,0.32 -2.54,1.16 0.14,0.28 0.82,0.41 2.19,0.37 2.76,0 9.31,-0.98 9.35,-1.34 0.03,-0.36 -0.66,-0.39 -4.31,-0.18l0 0z"/><path class="fil0" d="M188.19 227.92c-0.64,0.07 -4.03,0.35 -7.55,0.62 -3.48,0.26 -6.71,0.59 -7.15,0.68 -1.06,0.3 -1.06,1.66 -0.01,1.9 0.61,0.16 10.47,-1.27 15.89,-2.29 2.91,-0.55 2.02,-1.27 -1.18,-0.91l0 0z"/><path class="fil0" d="M105.8 229.91c-1.03,1 -0.3,2.04 4.21,5.76 4.9,4.09 16.32,14.16 24.47,21.59 6.04,5.5 10.26,9 15.3,12.71 5.23,3.82 5.55,3.55 1.51,-1.16 -3.51,-4.06 -7.08,-7.79 -15.55,-16.08 -10.22,-10.09 -18,-16.83 -24.17,-20.91 -3.38,-2.21 -4.93,-2.76 -5.77,-1.91l0 0z"/><path class="fil0" d="M205.79 240.61c-4.59,0.26 -15.84,0.33 -21.41,0.13 -4.09,-0.12 -5.04,0.15 -4.53,1.4 0.17,0.35 0.66,0.79 1.11,0.94 1.77,0.63 12.06,0.51 19.12,-0.22 5.35,-0.55 10.54,-1.56 10.78,-2.07 0.22,-0.48 -0.05,-0.47 -5.07,-0.18l0 0z"/><path class="fil0" d="M221.09 252.91c-0.63,0.01 -4.7,0.12 -9.01,0.28 -10.55,0.36 -17.39,0.54 -20.12,0.55 -3.03,0.01 -4.3,1.12 -2.69,2.37 0.62,0.53 1.38,0.54 7.53,0.25 9.13,-0.46 11.48,-0.64 20.79,-1.58 9.3,-0.91 9.13,-0.86 8.28,-1.31 -0.63,-0.36 -2.68,-0.59 -4.78,-0.56z"/><path class="fil0" d="M235.12 264.66c-1.74,0.47 -24.41,1.55 -31.76,1.51 -2.13,0 -2.81,0.14 -3.46,0.67 -0.72,0.6 -0.81,0.82 -0.57,1.41 0.47,1.11 0.95,1.23 5,0.98 15.53,-0.86 29.07,-2.57 31.36,-3.95 0.78,-0.45 0.42,-0.89 -0.57,-0.62z"/><path class="fil0" d="M241.27 275.3c-1.01,0.07 -9.63,0.82 -19.13,1.61 -9.5,0.83 -19.05,1.58 -21.22,1.68 -4.25,0.23 -5.05,0.58 -4.25,1.92 0.31,0.57 0.77,0.71 2.65,0.82 3.25,0.21 26.35,-2.35 40.2,-4.47 3.27,-0.48 6.37,-0.85 6.83,-0.81 0.47,0.04 0.84,-0.09 0.86,-0.25 0.04,-0.4 -3.43,-0.69 -5.94,-0.5l0 0z"/><path class="fil0" d="M161.31 280.35c-0.25,0.21 -0.48,0.82 -0.53,1.41 -0.09,0.86 0.16,1.38 1.35,2.59 2.23,2.41 5.71,5.07 10.23,7.87 5.82,3.61 5.97,3.09 0.73,-2.36 -9.54,-10 -9.2,-9.67 -10.29,-9.77 -0.6,-0.06 -1.24,0.05 -1.49,0.26l0 0z"/><path class="fil0" d="M280.35 293.06c-2.55,0.92 -7.33,3.53 -13.7,7.55 -9.27,5.81 -11.72,8.07 -17.14,15.81 -4.51,6.43 -7.41,11.44 -7.08,12.11 1.09,2.2 3.07,0.32 12.97,-12.45 3.18,-4.12 7.5,-8.21 12.22,-11.62 1.75,-1.26 4.93,-3.62 7.08,-5.25 2.16,-1.62 4.91,-3.66 6.13,-4.54 1.18,-0.89 2.26,-1.72 2.3,-1.85 0.25,-0.51 -1.02,-0.39 -2.78,0.24l0 0z"/><path class="fil0" d="M222.83 292.48c-2.59,0.29 -5.9,0.44 -7.36,0.34 -2.25,-0.12 -2.66,-0.06 -2.8,0.43 -0.45,1.56 1.46,2.1 5.44,1.55 3.34,-0.45 10.86,-2.16 10.89,-2.49 0.04,-0.4 -1.03,-0.37 -6.17,0.17z"/></g><text x="0" y="373.86" fill="#000000" font-size="0px" font-weight="bold" font-family="'Helvetica Neue', Helvetica, Arial-Unicode, Arial, Sans-serif">Created by Przemyslawk</text><text x="0" y="378.86" fill="#000000" font-size="0px" font-weight="bold" font-family="'Helvetica Neue', Helvetica, Arial-Unicode, Arial, Sans-serif">from the Noun Project</text></svg>