<svg xmlns="http://www.w3.org/2000/svg" xmlns:xlink="http://www.w3.org/1999/xlink" xml:space="preserve" version="1.1" style="shape-rendering:geometricPrecision;text-rendering:geometricPrecision;image-rendering:optimizeQuality;" viewBox="0 0 371.38 414.675" x="0px" y="0px" fill-rule="evenodd" clip-rule="evenodd"><defs><style type="text/css">
   
    .fil0 {fill:white}
   
  </style></defs><g><path class="fil0" d="M86.6 0.19c-10.84,1.05 -23.83,4.37 -34.05,8.7 -13.79,5.88 -31.11,22.07 -41.66,38.93 -6.43,10.21 -12.19,24.72 -10.64,26.61 0.84,1.05 1.81,-0.34 5.59,-7.99 7.32,-14.84 14.17,-24.34 25.52,-35.35 13.16,-12.78 23.46,-18.63 39.9,-22.66 8.32,-2.02 14.33,-2.78 22.2,-2.78 9.83,0 28.04,1.89 34.59,3.57 2.82,0.76 3.33,0.76 3.33,0.21 0,-0.54 -5.89,-3.44 -9.25,-4.54 -10.51,-3.44 -26.53,-5.54 -35.53,-4.7l0 0z"/><path class="fil0" d="M139.03 13.72c-1.47,1.47 -0.17,2.78 3.86,3.91 1.39,0.38 4.38,1.43 6.65,2.36 2.27,0.88 4.33,1.64 4.54,1.64 1.01,0 0.21,-0.97 -2.61,-3.2 -5.25,-4.12 -10.89,-6.26 -12.44,-4.71l0 0z"/><path class="fil0" d="M89.04 19.1c-18.58,2.82 -35.48,9.5 -48.76,19.26 -16.06,11.81 -25.02,24.04 -31.16,42.42 -3.61,10.76 -4.91,19.59 -4.87,32.7 0.08,26.78 6.22,51.63 17.07,69.28 1.38,2.32 3.53,6.48 4.75,9.25 4.33,10.05 10,21.99 12.06,25.48 6.01,9.92 20.39,24.51 35.36,35.82 14.75,11.14 33.21,19.92 52.59,24.97 2.94,0.8 5.46,1.51 5.55,1.6 0.17,0.16 -1.64,3.44 -8.45,15.21 -2.15,3.7 -4.92,8.83 -6.22,11.4 -1.31,2.56 -3.37,6.43 -4.63,8.62 -1.26,2.18 -2.77,4.96 -3.4,6.22 -0.63,1.22 -1.9,3.02 -2.82,3.95 -1.89,1.98 -2.19,3.95 -0.8,5.34 1.47,1.47 2.78,1.47 7.06,0 12.45,-4.21 26.53,-12.15 38.13,-21.48 12.53,-10.09 20.81,-18.67 23.84,-24.6l1.81 -3.49 2.94 -0.46c16.94,-2.73 35.82,-7.86 50.87,-13.87 29.43,-11.73 43.38,-19.13 72.6,-38.38 7.23,-4.8 7.57,-4.97 8.49,-4.38 0.55,0.38 2.86,1.35 5.13,2.23 8.28,3.07 12.61,5.68 27.03,16.27 13.08,9.59 14.09,10.09 17.53,8.45 1.52,-0.71 3.12,-3.45 3.12,-5.34 0,-0.63 1,-6.39 2.27,-12.78 4.66,-23.79 5.92,-39.26 4.91,-60.03 -0.25,-5.09 -0.75,-15.01 -1.09,-22.07 -0.59,-11.94 -1.3,-22.28 -2.31,-31.95 -0.84,-8.12 -2.94,-35.48 -3.57,-46.46 -0.38,-6.26 -0.85,-13.7 -1.06,-16.6 -0.21,-2.9 -0.5,-8.28 -0.63,-11.98 -0.37,-9.76 -1.05,-17.45 -1.68,-19 -0.75,-1.77 -2.9,-3.07 -5.04,-3.07 -1.26,0 -2.57,0.5 -5.05,1.93 -12.15,7.02 -47.21,23.67 -80.71,38.21 -6.23,2.74 -17.95,7.91 -26.07,11.48 -8.07,3.57 -17.65,7.69 -21.23,9.21 -3.57,1.47 -7.61,3.32 -8.95,4.12 -1.94,1.13 -2.61,1.38 -3.24,1.05 -0.42,-0.25 -1.56,-0.42 -2.48,-0.42 -1.3,0 -1.85,0.25 -2.52,1.09 -1.18,1.51 -1.1,2.99 0.25,5 1.43,2.11 1.77,5.3 1.77,18.38 0.04,9.71 -0.38,12.86 -0.97,7.23 -0.97,-9.25 -7.61,-28.34 -14.46,-41.54 -8.5,-16.27 -17.58,-28.42 -27.41,-36.62 -19.64,-16.39 -51,-25.35 -75.55,-21.65l0 0zm22.03 9.88c10.8,1.43 20.73,4.42 30.61,9.25 16.9,8.24 26.82,18.33 38.97,39.52 8.32,14.55 14.67,32.2 16.52,46.03 1.47,10.85 1.26,27.75 -0.46,43.09 -0.38,2.99 -0.76,8.75 -0.89,12.74 -0.25,8.45 0.72,7.02 -7.9,11.86 -4.96,2.81 -15.81,8.07 -16.06,7.82 -0.08,-0.09 0.21,-1.14 0.63,-2.4 1.93,-5.68 4.16,-18.08 4.54,-25.39 0.72,-14.38 -2.27,-33.38 -7.82,-49.61 -3.53,-10.3 -11.1,-23.75 -18.92,-33.63 -3.78,-4.75 -12.23,-13.03 -16.18,-15.81 -6.77,-4.79 -17.41,-10.3 -24.17,-12.53 -13.5,-4.41 -32.96,-4.33 -46.67,0.21 -4.54,1.52 -12.19,5.26 -16.31,8.03 -6.1,4.04 -13.58,11.73 -18.37,18.84 -6.14,9.16 -10.68,23.08 -12.02,36.99 -0.47,4.84 -0.3,16.4 0.29,22.28 0.46,4.17 -0.13,2.44 -1.26,-3.65 -1.73,-9.29 -2.48,-18.04 -2.52,-28.93 0,-8.45 0.12,-10.63 0.92,-15.17 4.41,-24.85 15.01,-41.41 34.77,-54.32 17.65,-11.52 43,-17.7 62.3,-15.22l0 0zm241.19 10.81c0.17,3.07 0.63,10.21 1.1,15.89 0.46,5.67 1,14.38 1.26,19.34 0.5,10.51 1.72,27.15 4.83,65.16 0.13,1.51 0.51,7.65 0.84,13.66 0.34,6.01 0.93,14.88 1.26,19.76 0.68,9.46 0.8,13.66 0.38,13.66 -0.12,0 -0.97,-0.54 -1.81,-1.22 -3.95,-3.11 -15.89,-10.3 -29.21,-17.57 -11.44,-6.26 -23.42,-10.34 -28.21,-9.63 -2.23,0.34 -4,1.98 -4,3.66 0,1.47 -3.82,7.91 -8.15,13.75 -4.21,5.63 -21.74,23.29 -28.21,28.42 -14.29,11.31 -31.24,21.52 -45.57,27.37 -12.61,5.17 -28.72,9.37 -43.56,11.39 -6.85,0.92 -23.5,1.09 -28.58,0.25 -11.23,-1.85 -20.73,-4.46 -35.32,-9.63 -12.02,-4.28 -18.45,-6.98 -26.06,-11.05 -6.77,-3.62 -8.11,-4.59 -4.41,-3.11 6.01,2.39 8.36,2.77 18.62,2.98 22.66,0.5 44.01,-2.69 65.25,-9.75 22.28,-7.44 44.52,-20.48 62.51,-36.62 13.66,-12.27 23.54,-25.22 30.9,-40.32 2.1,-4.37 3.02,-5.84 3.82,-6.13 1.1,-0.42 1.1,-0.21 0.13,-5.01 -0.25,-1.13 -0.76,-2.18 -1.39,-2.64 -0.5,-0.42 -2.65,-2.15 -4.75,-3.83 -2.06,-1.68 -7.19,-5.34 -11.35,-8.11 -8.87,-5.89 -23.25,-16.57 -23.16,-17.16 0,-0.25 1.17,-0.84 2.56,-1.3 3.66,-1.3 53.06,-22.53 69.58,-29.89 28.54,-12.78 32.87,-14.76 46.24,-21.4 7.53,-3.74 13.79,-6.72 13.92,-6.64 0.12,0.08 0.37,2.65 0.54,5.72l0 0zm-265.45 25.73c0,0.12 -1.68,3.57 -3.74,7.69 -2.06,4.12 -4.03,8.53 -4.41,9.79l-0.67 2.32 -4.84 2.27c-2.69,1.26 -6.1,3.11 -7.65,4.12 -1.51,1.01 -2.86,1.72 -2.99,1.59 -0.08,-0.08 1.01,-4.28 2.48,-9.33 1.43,-5.04 3.03,-10.76 3.54,-12.69 0.5,-1.9 1.17,-3.66 1.51,-3.83 0.71,-0.46 6.26,-1.43 6.52,-1.14 0.12,0.13 -0.72,3.41 -1.9,7.28 -2.56,8.53 -3.15,11.22 -2.81,12.61 0.29,1.13 1.13,1.3 1.93,0.38 0.34,-0.38 0.34,-0.63 0.09,-0.63 -0.47,0 1.34,-5.64 4.75,-14.8l1.97 -5.34 2.15 -0.17c1.22,-0.08 2.6,-0.17 3.15,-0.21 0.5,-0.04 0.92,0 0.92,0.09l0 0zm11.44 0.92c0.17,0.13 -0.72,1.51 -1.89,3.11 -1.22,1.6 -3.62,5.17 -5.34,7.95 -2.36,3.78 -3.41,5.13 -4.21,5.34 -0.59,0.12 -2.22,0.58 -3.65,1.01 -1.48,0.37 -2.57,0.63 -2.48,0.46 1.51,-2.78 6.05,-10.55 8.15,-14.09l2.73 -4.54 3.2 0.3c1.76,0.17 3.32,0.38 3.49,0.46l0 0zm8.07 1.85c1.51,0.46 2.82,1.01 2.94,1.22 0.13,0.21 -2.94,2.98 -6.85,6.22 -6.35,5.26 -7.31,5.93 -9.12,6.22l-1.98 0.3 0.76 -1.22c2.9,-4.46 10.09,-13.58 10.72,-13.58 0.42,0 1.97,0.38 3.53,0.84l0 0zm-41.91 7.19c-2.48,9.04 -3.16,12.02 -3.79,16.35l-0.5 3.62 -3.03 2.86c-2.69,2.52 -3.07,2.77 -3.07,1.89 0.04,-3.24 4.5,-28.55 5.17,-29.22 0.34,-0.34 6.77,-2.65 6.94,-2.48 0.08,0.08 -0.71,3.2 -1.72,6.98zm52.04 -2.9c1.51,0.76 2.73,1.51 2.73,1.68 0,0.17 -2.52,2.19 -5.63,4.5l-5.67 4.24 -2.23 -0.37c-1.22,-0.21 -3.11,-0.51 -4.21,-0.68l-2.01 -0.25 6.85 -5.21c3.74,-2.86 6.93,-5.21 7.1,-5.21 0.17,-0.05 1.56,0.54 3.07,1.3l0 0zm-62.68 5.34c-1.05,5.17 -2.27,17.23 -2.27,22.32l0 3.45 -2.06 2.6c-2.14,2.74 -5.34,7.49 -7.31,10.98l-1.18 2.1 0.29 -17.87c0.13,-9.84 0.42,-18.16 0.63,-18.54 0.21,-0.38 1.52,-1.72 2.95,-2.94l2.6 -2.27 -0.29 2.31c-0.88,6.48 -1.14,9.71 -1.39,17.03 -0.25,8.28 0.08,11.14 1.35,11.14 0.84,0 1.64,-1.56 1,-1.94 -0.63,-0.37 -0.37,-4.24 1.31,-17.82 1.76,-14.63 1.47,-13.33 3.28,-14.29 0.84,-0.42 1.64,-0.8 1.76,-0.84 0.13,0 -0.17,2.06 -0.67,4.58l0 0zm71.72 -0.3c1.14,0.76 2.1,1.52 2.1,1.64 0,0.17 -0.88,0.38 -1.93,0.51 -2.1,0.21 -7.44,2.69 -9.33,4.29 -1.22,1 -1.27,1 -3.2,0.37 -1.05,-0.37 -1.93,-0.71 -1.93,-0.8 0,-0.08 2.01,-1.38 4.54,-2.9 2.48,-1.51 5.08,-3.11 5.76,-3.61 0.71,-0.46 1.38,-0.84 1.59,-0.84 0.17,0 1.26,0.63 2.4,1.34l0 0zm9.08 7.61c0,0.17 -2.27,1.26 -4.96,2.44l-4.88 2.1 -3.49 -1.89 -3.44 -1.85 2.9 -0.88c1.6,-0.46 4.37,-1.14 6.14,-1.52 1.76,-0.37 3.44,-0.96 3.69,-1.3 0.47,-0.5 0.8,-0.38 2.32,0.97 1.01,0.88 1.76,1.76 1.72,1.93l0 0zm-96.56 8.28c-0.38,6.23 0.16,24.22 0.84,27.62 0.25,1.22 0.16,2.15 -0.3,3.16 -0.33,0.75 -1.34,3.15 -2.18,5.34l-1.6 3.95 -0.25 -2.27c-0.59,-5.38 -1.6,-20.43 -1.9,-27.45 -0.29,-6.9 -0.25,-7.78 0.47,-9.29 0.75,-1.73 4.92,-7.57 5.17,-7.28 0.04,0.04 -0.04,2.86 -0.25,6.22l0 0zm100.89 -4.03c0.38,0.46 -0.29,0.92 -3.57,2.52 -2.23,1.05 -4.12,1.93 -4.21,1.93 -0.08,0 -0.92,-0.54 -1.89,-1.21l-1.68 -1.22 3.28 -0.72c1.81,-0.38 4.03,-0.97 4.96,-1.26 2.19,-0.76 2.52,-0.76 3.11,-0.04l0 0zm-36.28 0.71c6.94,0.97 15.43,4.63 22.74,9.76 6.98,4.91 15.05,13.87 20.98,23.29 2.19,3.44 7.32,13.32 7.32,14.08 0,0.17 -0.3,0.34 -0.63,0.34 -0.34,0 -0.63,0.16 -0.63,0.42 0,0.21 0.37,0.42 0.84,0.42 0.96,0 1.76,1.55 3.4,6.68 0.93,2.86 0.93,3.07 0.25,3.45 -1.05,0.59 -0.88,1.13 0.42,1.3 1.06,0.13 1.27,0.46 2.27,3.7 0.63,1.98 1.48,5.68 1.85,8.2 0.38,2.56 1.27,7.57 1.94,11.14 1.68,9.21 1.81,10.3 1.22,14.71 -0.3,2.15 -0.63,6.39 -0.8,9.42l-0.25 5.47 -5.47 1.76c-2.98,1.01 -8.58,2.57 -12.4,3.49 -16.31,3.95 -24.13,4.83 -43.3,4.88 -12.7,0 -13.92,-0.09 -17.24,-0.93 -5.38,-1.39 -11.6,-3.7 -24.8,-9.29 -6.6,-2.77 -12.7,-5.34 -13.54,-5.67 -1.89,-0.8 -4.87,-3.49 -9.08,-8.29l-3.11 -3.57 0.21 -11.77c0.21,-12.44 0.55,-15.3 3.07,-26.7 3.49,-15.59 11.39,-30.68 21.15,-40.31 12.1,-11.94 28.75,-18.04 43.59,-15.98l0 0zm40.9 4.8c2.02,2.64 2.11,3.15 0.68,3.15 -0.55,0 -2.36,0.21 -3.95,0.5l-2.9 0.51 -1.81 -1.6c-1.01,-0.84 -1.77,-1.68 -1.68,-1.85 0.12,-0.25 6.89,-2.86 7.65,-2.98 0.17,-0.05 1.05,1 2.01,2.27l0 0zm5.18 7.23c0.58,0.88 1.38,2.1 1.76,2.73l0.76 1.13 -1.35 -0.37c-0.75,-0.21 -2.27,-0.21 -3.7,0l-2.35 0.42 -1.77 -2.02 -1.76 -1.98 2.6 -0.29c2.02,-0.21 3.79,-0.63 4.71,-1.14 0.04,-0.04 0.51,0.68 1.1,1.52l0 0zm66.5 0.37c0.38,0.34 0.68,0.85 0.68,1.14 0,0.25 -0.38,0.04 -0.85,-0.46 -1.26,-1.35 -1.09,-1.94 0.17,-0.68l0 0zm-184.72 12.78c0.88,8.24 2.19,17.45 2.94,20.14 0.3,1.1 0.21,2.27 -0.38,4.63 -0.46,1.76 -1.05,4.33 -1.34,5.71l-0.51 2.53 -1 -4.63c-1.1,-5.25 -3.7,-19.84 -4.12,-23.33 -0.17,-1.26 -0.47,-2.52 -0.68,-2.77 -0.63,-0.76 2.19,-12.24 3.58,-14.68 0.38,-0.71 0.46,-0.46 0.59,1.68 0.04,1.39 0.46,6.23 0.92,10.73l0 -0.01zm122.76 -5.88c0.46,0.88 0.84,1.72 0.84,1.81 0,0.08 -0.8,0.29 -1.77,0.46 -1.01,0.13 -2.18,0.34 -2.69,0.5 -0.71,0.17 -1.18,-0.16 -2.23,-1.55 -0.71,-1.01 -1.3,-1.94 -1.3,-2.1 0,-0.17 1.01,-0.21 2.27,-0.09 1.3,0.13 2.56,0.04 3.03,-0.21 0.46,-0.25 0.84,-0.5 0.88,-0.5 0.08,0 0.5,0.75 0.97,1.68l0 0zm71.46 8.2c0.72,4.41 1.73,9.92 2.27,12.27 0.89,4 0.93,4.21 0.17,3.79 -0.8,-0.51 -0.84,-0.68 -1.6,-6.6 -0.29,-1.98 -1.13,-6.77 -1.93,-10.68 -1.64,-8.12 -1.64,-8.24 -0.84,-7.4 0.34,0.38 1.13,4.03 1.93,8.62l0 0zm-5.08 -0.04c0.96,3.65 2.22,8.11 2.81,9.83 0.55,1.73 0.97,3.2 0.93,3.28 -0.09,0.04 -0.76,-0.42 -1.52,-1.01 -1.38,-1.13 -1.38,-1.26 -2.81,-9.54 -2.1,-12.11 -1.98,-12.53 0.59,-2.56zm10.3 -2.53c0.08,0.47 0.71,4.59 1.34,9.08 0.63,4.5 1.47,9.67 1.85,11.44 0.63,2.94 0.63,3.19 0.04,2.86 -1.68,-0.89 -2.1,-1.94 -2.52,-6.31 -0.71,-6.56 -1.68,-15.13 -1.97,-16.94 -0.21,-1.3 -0.13,-1.51 0.42,-1.3 0.37,0.12 0.75,0.67 0.84,1.17l0 0zm-74.16 -0.63c0,0.59 -3.66,1.85 -4.42,1.6 -1.34,-0.55 -0.54,-1.14 1.43,-1.14 1.18,0 2.23,-0.21 2.36,-0.42 0.33,-0.54 0.63,-0.54 0.63,-0.04zm59.48 3.83c0.43,1.72 1.1,4.16 1.56,5.42 0.42,1.26 0.67,2.36 0.59,2.44 -0.09,0.13 -1.14,-0.51 -2.36,-1.39 -1.89,-1.34 -2.14,-1.72 -1.93,-2.69 0.08,-0.63 0.34,-2.61 0.51,-4.37 0.16,-1.77 0.42,-3.11 0.58,-2.9 0.17,0.17 0.63,1.76 1.05,3.49l0 0zm-56.58 2.69c0.71,1.72 1.3,3.32 1.3,3.57 0,0.25 -0.71,0.46 -1.6,0.46 -1.59,0 -1.68,-0.08 -3.74,-3.57l-2.14 -3.57 2.44 0 2.44 0 1.3 3.11 0 0zm80.34 10.63c2.81,14.17 2.77,14.89 -0.47,11.65l-2.01 -2.06 -0.21 -8.41c-0.09,-4.62 -0.34,-9.75 -0.47,-11.35 -0.25,-2.35 -0.21,-2.86 0.21,-2.44 0.3,0.25 1.6,5.93 2.95,12.61l0 0zm9.5 -4.66c1.01,0.59 1.85,1.26 1.85,1.47 0,0.17 -0.72,1.64 -1.56,3.19l-1.55 2.86 -0.3 -1.68c-0.59,-3.4 -0.88,-6.94 -0.59,-6.94 0.13,0 1.1,0.51 2.15,1.1zm-87.4 1.3c0.25,0.34 0.8,1.85 1.22,3.32 0.63,2.36 0.63,2.82 0.12,3.16 -0.33,0.21 -0.67,0.37 -0.8,0.37 -0.12,0 -1,-1.8 -1.97,-3.99l-1.73 -3.95 1.31 0.25c0.75,0.13 1.55,0.5 1.85,0.84l0 0zm61.5 9.71c7.86,5.68 14.72,11.02 14.72,11.48 0,0.46 -5.64,7.27 -10.01,12.06 -5.97,6.56 -15.51,14.76 -23.16,19.97 -2.19,1.47 -3.03,1.85 -2.82,1.31 0.88,-2.32 2.44,-8.41 3.57,-13.92 1.89,-9.33 2.57,-17.36 2.57,-30.39l0 -11.31 4.54 3.19c2.48,1.77 7.23,5.22 10.59,7.61l0 0zm-193.98 10.51c1.51,5.51 1.51,5.64 1.05,9.55 -0.25,2.14 -0.46,6.26 -0.5,9.12l-0.05 5.17 -0.79 -2.52c-1.01,-3.03 -2.61,-10.93 -3.49,-17.03 -0.89,-5.84 -1.64,-18.67 -1.31,-21.02 0.3,-1.77 0.34,-1.6 1.94,4.62 0.92,3.58 2.35,9.04 3.15,12.11l0 0zm215.88 -9.46c-0.33,0.34 -0.46,0.17 -0.46,-0.63 0,-0.59 -0.08,-1.72 -0.21,-2.48 -0.17,-1.05 -0.04,-0.88 0.46,0.63 0.47,1.43 0.51,2.19 0.21,2.48zm-79.53 2.65c1.59,6.98 0.84,7.11 -1.22,0.21 -1.05,-3.45 -1.18,-4.45 -0.76,-4.71 0.71,-0.46 0.92,0 1.98,4.5zm1.68 8.79c-0.05,1.22 -0.05,1.22 -0.38,0.21 -0.17,-0.59 -0.34,-1.43 -0.38,-1.89 -0.04,-0.68 0.04,-0.72 0.38,-0.21 0.21,0.33 0.38,1.17 0.38,1.89zm144.82 19.5c2.65,1.18 2.69,1.22 3.58,3.87 1.22,3.83 1.97,7.7 2.77,14.67 0.84,7.19 0.67,10.01 -1.05,18.46 -0.67,3.4 -1.26,6.89 -1.34,7.82 -0.13,1.55 -0.21,1.68 -1.48,1.81 -1.8,0.16 -4.07,-1.01 -3.7,-1.94 1.06,-2.65 3.24,-13.41 3.45,-16.86 0.42,-7.27 -1.3,-18.24 -3.87,-24.84 -1.51,-3.74 -1.64,-4.2 -1.26,-4.2 0.13,0 1.43,0.54 2.9,1.21l0 0zm14.26 8.29c0.21,0.67 0.46,3.99 0.58,7.4 0.26,6.93 -0.16,11.93 -2.01,22.99 -0.68,4.04 -1.22,8.07 -1.22,8.96 0,1.85 0,1.8 -2.4,0.92l-1.77 -0.67 1.22 -2.4c0.63,-1.3 1.81,-4.45 2.61,-6.98 1.35,-4.54 1.39,-4.75 1.35,-12.4 0,-7.82 -0.59,-12.23 -2.44,-19.25l-0.59 -2.23 2.14 1.22c1.52,0.84 2.27,1.6 2.53,2.44l0 0zm-23.04 -0.59c2.35,7.94 2.9,18.62 1.51,29.47 -0.5,3.66 -0.88,7.65 -0.88,8.83l0 2.18 -2.99 1.81c-1.64,1.01 -2.9,1.56 -2.77,1.26 0.08,-0.29 0.88,-2.19 1.72,-4.2 1.81,-4.33 2.57,-7.91 2.99,-13.41 0.33,-4.59 -0.34,-15.43 -1.31,-21.65 -0.63,-4 -0.63,-4.33 0.05,-5.39 0.42,-0.58 0.79,-1.09 0.88,-1.09 0.08,0 0.42,1.01 0.8,2.19l0 0zm31.7 4.5l0.96 0.75 -0.46 6.9c-0.29,3.78 -0.97,10.72 -1.51,15.38 -1.05,8.5 -1.35,17.07 -0.68,18.17 0.3,0.42 0.55,0.46 1.22,0.08 2.36,-1.26 5.38,-9.21 7.49,-19.76 1.3,-6.39 1.47,-8.03 1.34,-12.11 -0.08,-2.6 -0.08,-4.75 -0.04,-4.75 0.25,0 3.4,1.94 4.08,2.48 0.67,0.59 0.71,1.05 0.5,3.62 -0.63,6.72 -1.64,14.75 -2.77,22.28 -0.68,4.37 -1.43,9.54 -1.73,11.43 -0.33,2.4 -0.63,3.41 -0.96,3.2 -0.26,-0.17 -2.02,-1.3 -3.87,-2.48 -1.89,-1.22 -5.13,-3.11 -7.15,-4.21 -2.06,-1.09 -3.78,-2.01 -3.87,-2.06 -0.04,-0.04 0.38,-0.92 0.97,-1.93 2.1,-3.66 5.21,-15.22 5.89,-21.82 0.25,-2.48 -0.26,-10.55 -0.89,-14.42 -0.29,-1.72 0,-1.89 1.48,-0.75l0 0zm-38.64 9.62c0,12.32 -0.59,15.81 -5.17,31.32 -0.92,3.07 -1.68,4.5 -2.19,4 -0.12,-0.09 0.68,-2.74 1.73,-5.8 3.15,-9.17 3.23,-9.76 3.32,-22.79 0.08,-10.59 0.17,-11.69 0.88,-12.65 0.46,-0.59 0.93,-0.97 1.14,-0.85 0.16,0.09 0.29,3.16 0.29,6.77l0 0zm-7.94 7.82c-0.3,2.57 -0.93,6.64 -1.48,9.08l-0.96 4.42 0.21 -4.33c0.12,-2.48 -0.04,-6.18 -0.34,-8.58l-0.5 -4.2 1.59 -1.64 1.64 -1.68 0.13 1.13c0.08,0.63 -0.04,3.28 -0.29,5.8l0 0zm67.01 -5.38c0.59,0.38 1.05,1.01 1.05,1.39 0,0.88 -3.49,15.18 -3.66,15.01 -0.08,-0.05 0.25,-2.48 0.76,-5.34 0.59,-3.49 0.84,-6.31 0.71,-8.49 -0.12,-1.77 -0.12,-3.24 -0.04,-3.24 0.08,0 0.63,0.29 1.18,0.67l0 0zm7.23 6.14c-0.13,0.34 -0.25,0.21 -0.25,-0.25 -0.05,-0.47 0.08,-0.72 0.21,-0.55 0.12,0.13 0.16,0.5 0.04,0.8zm-317.92 6.05c2.11,1.85 4.5,3.95 5.38,4.71l1.64 1.39 -3.49 -0.13 -3.44 -0.12 -1.64 -2.74c-0.93,-1.51 -2.44,-4.16 -3.41,-5.88l-1.68 -3.15 1.43 1.3c0.8,0.67 3.15,2.77 5.21,4.62l0 0zm317.5 -3.74c-0.13,0.42 -0.21,0.17 -0.21,-0.5 0,-0.72 0.08,-1.01 0.21,-0.76 0.08,0.29 0.08,0.88 0,1.26zm-84.12 12.11c-1.06,6.26 -2.19,12.86 -2.57,14.71 -0.34,1.85 -0.59,4.08 -0.63,4.92 0,1.43 -0.17,1.64 -2.48,3.03 -1.35,0.84 -2.56,1.51 -2.69,1.51 -0.08,0 0.92,-3.45 2.31,-7.65 3.83,-11.69 4.21,-13.54 4.33,-20.47l0.17 -6.06 1.6 -1.64c1.51,-1.59 1.6,-1.59 1.72,-0.67 0.09,0.55 -0.71,6.1 -1.76,12.32zm83.23 -5.97c-0.84,5.59 -5.25,29.85 -5.5,30.06 -0.21,0.25 -4.21,-2.27 -4.84,-3.07 -0.38,-0.46 -0.33,-0.93 0.34,-1.98 2.35,-3.86 8.53,-20.93 9.84,-27.28 0.79,-3.87 0.88,-2.57 0.16,2.27l0 0zm-92.74 7.69c-3.23,14.8 -5,23.21 -5.25,24.68 -0.21,1.43 -0.46,1.68 -3.2,3.07 -1.63,0.8 -3.06,1.43 -3.15,1.3 -0.08,-0.08 0.51,-1.68 1.3,-3.61 1.85,-4.38 5.13,-14.89 5.93,-18.88 0.34,-1.72 0.59,-4.37 0.59,-5.88l0 -2.82 2.44 -1.94c1.3,-1.09 2.44,-1.89 2.52,-1.85 0.04,0.05 -0.46,2.74 -1.18,5.93l0 0zm83.96 -4.37c-0.13,0.34 -0.25,0.21 -0.25,-0.25 -0.05,-0.46 0.08,-0.72 0.21,-0.55 0.12,0.13 0.16,0.51 0.04,0.8zm-0.42 1.68c-0.13,0.34 -0.25,0.21 -0.25,-0.25 -0.05,-0.46 0.08,-0.72 0.21,-0.55 0.12,0.13 0.16,0.51 0.04,0.8zm-66.43 0.84c-0.12,0.34 -0.25,0.21 -0.25,-0.25 -0.04,-0.46 0.09,-0.71 0.21,-0.55 0.13,0.13 0.17,0.51 0.04,0.8zm-230.85 2.36c2.82,0.25 3.75,0.54 5.55,1.72 1.22,0.76 2.15,1.47 2.06,1.6 -0.08,0.08 -2.69,-0.04 -5.8,-0.3 -3.11,-0.21 -5.97,-0.42 -6.35,-0.42 -0.58,0 -3.27,-3.23 -3.27,-3.91 0,-0.08 1,0.09 2.22,0.42 1.18,0.34 3.7,0.72 5.59,0.89l0 0zm228.71 6.85c-1.13,4.58 -2.19,7.94 -2.61,8.32 -0.63,0.63 -0.67,0.59 -0.42,-0.16 0.17,-0.47 1.31,-4.38 2.48,-8.71 1.22,-4.37 2.23,-7.73 2.32,-7.52 0.08,0.21 -0.72,3.82 -1.77,8.07zm-26.32 1.68c-1.38,5.97 -3.99,18.46 -4.41,21.02 -0.21,1.35 -0.46,1.64 -2.23,2.31 -1.09,0.47 -2.1,0.84 -2.27,0.93 -0.17,0.08 0.17,-0.97 0.72,-2.36 1.3,-3.19 4.24,-13.41 4.83,-16.9 0.29,-1.51 0.38,-3.91 0.21,-5.46l-0.29 -2.73 2.27 -1.56c1.22,-0.88 2.27,-1.43 2.35,-1.26 0.04,0.21 -0.46,2.9 -1.18,6.01l0 0zm-201.08 -2.14c3.11,0.84 9.75,1.68 12.86,1.68 1.01,0 2.19,0.25 2.65,0.59 0.72,0.54 -0.17,0.63 -7.61,0.75l-8.41 0.13 -2.1 -2.27c-1.3,-1.39 -1.76,-2.14 -1.26,-1.98 0.46,0.17 2.19,0.68 3.87,1.1l0 0zm292.48 4.58c-0.63,2.82 -1.26,5.09 -1.39,5.09 -0.13,0 -0.5,-0.17 -0.84,-0.38 -0.42,-0.3 -0.25,-1.1 0.92,-4.08 0.85,-2.06 1.64,-4.29 1.81,-4.92 0.13,-0.63 0.34,-1.09 0.47,-0.97 0.12,0.09 -0.34,2.48 -0.97,5.26l0 0zm-101.28 3.24c-0.63,4.41 -1.59,9.03 -3.61,17.32 -1.01,4.12 -1.3,4.45 -4.04,5.29 -0.92,0.3 -0.92,0.26 0.26,-2.35 2.98,-6.6 5.25,-15.98 4.91,-20.31l-0.25 -2.94 1.56 -0.92c0.88,-0.47 1.64,-0.84 1.72,-0.8 0.04,0.08 -0.21,2.18 -0.55,4.71l0 0zm-182.87 -0.89c4.58,0.84 11.94,1.22 14,0.68 1.56,-0.42 1.98,-0.38 3.74,0.54 1.31,0.63 1.81,1.1 1.39,1.22 -0.34,0.13 -4.88,0.72 -10.05,1.35l-9.41 1.13 -3.62 -3.61 -3.62 -3.62 2.32 0.88c1.26,0.47 3.65,1.14 5.25,1.43l0 0zm173.63 3.87c-0.34,2.19 -3.79,18.75 -4.42,21.15 -0.33,1.22 -0.76,1.64 -2.6,2.44 -1.22,0.5 -2.32,0.92 -2.44,0.92 -0.13,0 0.46,-1.47 1.3,-3.28 3.41,-7.06 6.39,-18.08 5.68,-20.85 -0.17,-0.67 0.08,-1.09 0.92,-1.64 1.68,-1.05 1.85,-0.92 1.56,1.26l0 0zm-145.67 3.32c-1.94,0.63 -16.69,3.83 -19.34,4.25 -1.35,0.17 -1.72,0 -3.53,-1.6l-2.02 -1.85 10.26 -0.04c7.82,-0.04 10.72,-0.21 12.32,-0.67 1.17,-0.38 2.56,-0.68 3.15,-0.68 0.71,0 0.42,0.21 -0.84,0.59l0 0zm135.79 4c-0.51,1.93 -2.06,7.18 -3.49,11.68l-2.61 8.16 -2.1 0.92c-4.21,1.85 -4.25,1.85 -2.06,-1.34 2.1,-3.07 6.77,-12.45 7.94,-15.89 0.42,-1.18 0.8,-3.28 0.93,-4.71 0.21,-2.1 0.42,-2.65 1.13,-2.99 1.27,-0.54 1.31,0.05 0.26,4.17zm-123.43 -0.63c1.09,0.37 1.85,0.84 1.64,1 -0.47,0.47 -23.38,7.99 -24.26,7.99 -0.42,0 -1.89,-0.88 -3.32,-1.97l-2.61 -2.02 6.31 -0.46c11.14,-0.85 15.55,-1.85 18.71,-4.17 0.8,-0.58 1.43,-1.05 1.47,-1.05 0.04,0 0.96,0.3 2.06,0.68zm115.86 0.16c0,0.8 -3.32,9.67 -5.84,15.52 -4.08,9.46 -3.75,8.95 -7.02,10 -1.56,0.55 -2.95,0.84 -3.03,0.76 -0.13,-0.13 0.67,-1.14 1.76,-2.31 2.65,-2.82 9.25,-12.99 10.35,-15.89 0.5,-1.31 1,-3.58 1.13,-5.05 0.21,-2.19 0.42,-2.73 1.14,-3.03 1.17,-0.5 1.51,-0.5 1.51,0zm-10.51 3.66c0,0.42 -2.23,6.05 -2.31,5.93 -0.09,-0.09 0.88,-5.72 1.01,-6.14 0.08,-0.25 1.3,-0.04 1.3,0.21zm-92.7 0.51c0.72,0.29 0.34,0.58 -2.31,1.93 -3.45,1.77 -22.45,9.04 -23.58,9.04 -0.34,0 -1.94,-0.84 -3.49,-1.81l-2.86 -1.85 4.37 -0.25c7.36,-0.46 17.4,-3.15 22.41,-5.93 2.56,-1.43 3.95,-1.72 5.46,-1.13zm84.29 1.93c0,0.63 -4.33,8.66 -7.52,14.04 -2.06,3.36 -4.12,6.9 -4.59,7.82 -0.5,0.93 -1.05,1.93 -1.26,2.19 -0.25,0.37 -5.88,1.8 -7.19,1.8 -0.08,0 1.22,-1.26 2.9,-2.81 3.45,-3.2 11.73,-13.54 13.25,-16.57 0.59,-1.09 1.22,-2.9 1.47,-4.03 0.25,-1.1 0.67,-2.15 0.97,-2.31 0.58,-0.38 1.97,-0.47 1.97,-0.13l0 0zm-71.55 1.85c0.76,0.42 -4.67,3.45 -17.4,9.67l-8.83 4.33 -4.16 -2.1 -4.21 -2.06 2.31 -0.34c2.95,-0.38 11.98,-2.69 17.45,-4.41 4.33,-1.39 7.44,-2.95 9.67,-4.84 1.05,-0.88 1.55,-1.01 2.9,-0.84 0.92,0.13 1.93,0.38 2.27,0.59l0 0zm61.04 0.67c0,0.51 -2.94,5.47 -6.81,11.39 -2.27,3.54 -4.88,7.78 -5.8,9.51l-1.68 3.15 -3.95 0.46c-2.19,0.3 -4.25,0.51 -4.5,0.51 -0.3,0 0.97,-0.97 2.77,-2.19 1.85,-1.22 5.47,-4.29 8.03,-6.85 5.05,-4.96 8.41,-9.67 9.88,-13.71 0.51,-1.39 1.18,-2.48 1.47,-2.48 0.34,0 0.59,0.09 0.59,0.21l0 0zm-49.44 1.85c0.63,0.25 0.13,0.76 -2.94,3.07 -5.25,3.83 -6.6,4.71 -14.63,9.38l-7.06 4.16 -2.19 -0.76c-1.18,-0.42 -2.82,-1.05 -3.61,-1.39l-1.48 -0.59 4.21 -1.38c9.84,-3.24 18.75,-7.44 22.7,-10.76 2.48,-2.02 3.41,-2.36 5,-1.73l0 0zm38.09 0.25c0,0.63 -4.62,6.9 -8.66,11.82 -2.52,2.98 -5.76,6.93 -7.23,8.7l-2.61 3.24 -3.65 0 -3.66 0 1.89 -1.18c2.77,-1.77 10.3,-7.86 12.44,-10.09 2.61,-2.69 5.43,-7.06 6.31,-9.88 0.63,-1.93 0.97,-2.4 1.81,-2.52 1.72,-0.3 3.36,-0.3 3.36,-0.09l0 0zm-25.64 1.43c0,0.76 -7.28,7.23 -14.76,13.16l-7.86 6.18 -4.71 -1.3 -4.71 -1.31 3.28 -1.17c4.92,-1.81 13.87,-6.39 17.11,-8.83 1.56,-1.18 3.83,-3.24 5.05,-4.62 2.14,-2.4 2.22,-2.49 4.41,-2.49 1.18,0 2.19,0.17 2.19,0.38l0 0zm8.53 3.87c-2.06,2.36 -5.46,6.18 -7.61,8.53 -2.14,2.32 -4.71,5.43 -5.67,6.86 -1.18,1.72 -2.06,2.6 -2.61,2.65 -0.93,0 -8.7,-1.14 -10.26,-1.48 -0.88,-0.21 -0.67,-0.42 1.77,-1.68 3.44,-1.76 9.16,-5.59 13.37,-8.95 3.15,-2.48 5.13,-4.58 7.31,-7.86 1.14,-1.77 2.1,-2.1 5.8,-2.27l1.56 -0.05 -3.66 4.25 0 0zm39.35 4.46c-4.75,8.45 -4.79,8.53 -6.77,8.53 -0.76,0 -0.59,-0.29 0.97,-2.02 1.05,-1.09 2.98,-3.53 4.37,-5.46 1.35,-1.89 2.52,-3.45 2.61,-3.45 0.12,0 -0.42,1.09 -1.18,2.4zm-64.07 19.46c0.13,0.21 -0.12,0.42 -0.63,0.42 -0.5,0 -0.76,-0.21 -0.63,-0.42 0.13,-0.25 0.42,-0.42 0.63,-0.42 0.21,0 0.51,0.17 0.63,0.42zm6.64 3.41l-1.72 2.18 -5.13 1.43c-2.86,0.76 -5.25,1.31 -5.34,1.22 -0.12,-0.08 0.25,-0.84 0.8,-1.68 0.88,-1.43 1.47,-1.72 6.85,-3.53 3.24,-1.14 5.97,-1.98 6.06,-1.89 0.08,0.04 -0.59,1.09 -1.52,2.27zm17.03 4.66c-7.53,7.91 -13.28,13.25 -18.5,17.2 -3.23,2.48 -12.36,8.36 -16.52,10.68 -1.93,1.05 -1.77,0.84 2.1,-2.78 9.13,-8.41 18.25,-18.96 24.26,-27.91l2.52 -3.79 5.34 -0.21c2.9,-0.12 5.84,-0.29 6.52,-0.33 1.05,-0.09 0.46,0.71 -5.72,7.14l0 0zm-21.19 0.68c-1.51,1.89 -1.81,2.06 -5.72,3.15 -2.27,0.63 -4.45,1.3 -4.83,1.43 -0.55,0.21 -0.59,0.12 -0.25,-0.51 0.33,-0.54 9.96,-5.34 12.23,-6.05 0.09,-0.04 -0.55,0.84 -1.43,1.98zm-5.04 6.26c-1.05,1.34 -2.19,2.56 -2.48,2.73 -1.22,0.72 -7.36,2.82 -7.36,2.52 0,-0.16 0.42,-0.92 0.97,-1.68 0.63,-0.92 2.31,-2.01 5.55,-3.61 2.56,-1.26 4.79,-2.31 4.96,-2.31 0.16,-0.05 -0.55,1.05 -1.64,2.35l0 0zm-9.84 10.89c-1.72,1.72 -4.08,3.95 -5.17,4.87l-2.02 1.73 2.1 -3.49c1.89,-3.2 2.32,-3.57 4.75,-4.84 1.47,-0.71 2.82,-1.38 3.07,-1.38 0.21,-0.05 -1.01,1.34 -2.73,3.11z"/><path class="fil0" d="M96.82 41.05c-2.02,0.55 -3.03,1.68 -2.69,3.03 0.42,1.64 1.68,1.76 3.95,0.33 1.09,-0.67 2.77,-1.68 3.78,-2.23 0.97,-0.5 1.77,-1.09 1.77,-1.3 0,-0.46 -4.88,-0.34 -6.81,0.17z"/><path class="fil0" d="M124.86 41.64c-1.6,0.38 -4.46,1.17 -6.31,1.76 -2.73,0.93 -3.4,1.31 -3.49,2.06 -0.12,0.72 0.09,0.97 0.68,0.97 1.17,0 12.9,-4.33 13.03,-4.83 0.21,-0.64 -0.72,-0.64 -3.91,0.04l0 0z"/><path class="fil0" d="M78.53 43.49c-2.31,1.38 -2.77,3.4 -0.84,4.03 0.76,0.26 1.51,-0.29 2.06,-1.47 0.08,-0.12 0.84,-0.8 1.72,-1.43 0.85,-0.63 1.56,-1.34 1.56,-1.6 0,-0.67 -3.11,-0.37 -4.5,0.47l0 0z"/><path class="fil0" d="M135.37 47.31c-4.46,0.59 -11.02,2.36 -14.04,3.87 -2.99,1.47 -3.91,2.48 -3.07,3.32 0.63,0.63 1.22,0.46 9.63,-2.56 3.28,-1.14 8.07,-2.57 10.67,-3.11 5.47,-1.14 6.56,-2.02 2.4,-1.94 -1.43,0.04 -3.95,0.21 -5.59,0.42z"/><path class="fil0" d="M58.48 50.17c-2.69,1.81 -3.91,4.37 -2.61,5.47 0.72,0.58 1.1,0.25 3.32,-2.86 0.76,-1.01 1.6,-2.19 1.94,-2.61 0.5,-0.71 0.46,-0.8 -0.42,-0.8 -0.55,0 -1.56,0.38 -2.23,0.8z"/><path class="fil0" d="M135.37 54.04c-2.94,0.46 -7.65,2.06 -8.24,2.73 -0.59,0.72 -0.21,1.85 0.67,1.85 0.38,0 2.65,-0.67 5.09,-1.47 2.44,-0.8 5.84,-1.68 7.57,-1.93 1.72,-0.26 3.11,-0.63 3.11,-0.8 0,-0.8 -4.54,-1.01 -8.2,-0.38z"/><path class="fil0" d="M139.66 62.57c-2.1,0.59 -3.2,1.31 -2.69,1.77 0.29,0.29 9.04,-1.72 9.46,-2.15 0.46,-0.42 -4.84,-0.12 -6.77,0.38z"/><path class="fil0" d="M148.19 70.01c-2.27,0.63 -2.65,0.8 -2.39,1.06 0.29,0.29 5,-0.68 5.54,-1.18 0.51,-0.46 -1.26,-0.38 -3.15,0.12l0 0z"/><path class="fil0" d="M172.28 105.5c-0.55,1.42 0.5,1.64 5.42,1 2.65,-0.33 4.71,-0.75 4.63,-1 -0.04,-0.26 -2.15,-0.47 -4.92,-0.55 -4.12,-0.09 -4.88,0 -5.13,0.55z"/><path class="fil0" d="M174.97 111.04c-0.84,0.85 -0.08,1.06 2.73,0.8 4.25,-0.37 4.71,-1.09 0.72,-1.09 -1.77,0 -3.32,0.13 -3.45,0.29z"/><path class="fil0" d="M179.93 121.51c-2.86,0.72 -4.03,1.56 -3.24,2.36 0.38,0.38 1.6,0.17 5.18,-0.76 2.56,-0.67 4.7,-1.43 4.75,-1.64 0.08,-0.67 -3.91,-0.63 -6.69,0.04l0 0z"/><path class="fil0" d="M180.27 133.45c-1.64,0.38 -2.65,1.14 -2.65,1.94 0,0.75 1.22,0.71 4.41,-0.05 1.39,-0.33 3.32,-0.63 4.33,-0.63 2.19,0 2.32,-0.67 0.21,-1.22 -1.8,-0.5 -4.33,-0.54 -6.3,-0.04l0 0z"/><path class="fil0" d="M181.87 144.76c-0.89,0.55 -0.21,1.72 0.96,1.72 1.14,0 2.48,-1.09 2.15,-1.72 -0.34,-0.46 -2.36,-0.46 -3.11,0z"/><path class="fil0" d="M319.01 54.29c-0.55,0.09 -0.97,0.42 -0.97,0.72 0,0.5 1.35,0.96 6.18,2.22 1.35,0.34 1.77,-0.96 0.63,-2.06 -0.88,-0.88 -3.82,-1.34 -5.84,-0.88z"/><path class="fil0" d="M312.79 58.07c-2.86,0.64 -2.27,1.18 1.59,1.56 2.61,0.25 2.82,0.21 2.82,-0.55 0,-1.09 -1.93,-1.55 -4.41,-1.01z"/><path class="fil0" d="M300.89 61.94c-2.44,0.46 -1.47,1.1 2.23,1.47 3.91,0.38 5.04,0.05 3.99,-1.22 -0.54,-0.67 -3.45,-0.79 -6.22,-0.25l0 0z"/><path class="fil0" d="M291.26 65.64c-0.54,0.09 -0.96,0.34 -0.96,0.55 0,0.5 1.38,0.76 7.48,1.3 6.01,0.51 7.06,0.3 6.14,-1.22 -0.42,-0.63 -1.26,-0.71 -6.1,-0.75 -3.11,-0.05 -6.05,0 -6.56,0.12l0 0z"/><path class="fil0" d="M283.4 69.8c-2.06,0.3 -3.82,0.68 -3.95,0.8 -0.72,0.72 1.43,1.22 7.19,1.6 5.3,0.38 6.64,0.34 7.19,-0.08 0.84,-0.72 0.84,-1.48 0,-2.32 -0.8,-0.84 -5.09,-0.84 -10.43,0z"/><path class="fil0" d="M273.27 75.06c-3.24,0.12 -6.6,0.29 -7.44,0.34 -0.88,0 -1.6,0.21 -1.6,0.46 0,0.84 3.53,1.3 12.57,1.68 5.17,0.21 9.5,0.5 9.63,0.59 0.46,0.5 1.76,-0.72 1.76,-1.64 0,-1.98 -1.47,-2.15 -14.92,-1.43l0 0z"/><path class="fil0" d="M273.9 79.22c-1.26,0.17 -5.93,0.21 -10.34,0.08 -5.63,-0.12 -8.12,-0.08 -8.33,0.26 -0.71,1.13 3.45,1.89 15.31,2.81 7.23,0.55 8.28,0.55 9.12,0 1.18,-0.79 1.26,-1.93 0.21,-2.85 -0.84,-0.76 -2.1,-0.8 -5.97,-0.3l0 0z"/><path class="fil0" d="M244.05 85.11c0,0.58 1.26,1.05 5.26,1.85 4.71,0.96 18.49,2.77 21.1,2.77 2.52,0 3.74,-0.84 3.07,-2.1 -0.63,-1.18 -2.73,-1.68 -7.32,-1.68 -3.78,0 -9.96,-0.34 -19.04,-1.05 -2.06,-0.17 -3.07,-0.09 -3.07,0.21z"/><path class="fil0" d="M344.86 87.29c-0.42,0.72 -0.54,3.79 -0.5,12.53 0.08,20.73 2.27,43.39 4.2,44.02 1.18,0.37 0.97,-25.98 -0.38,-47.72 -0.42,-6.89 -0.71,-9.08 -1.17,-9.37 -0.97,-0.59 -1.56,-0.47 -2.15,0.54z"/><path class="fil0" d="M235.01 89.27c-0.37,0.67 2.32,1.22 14.68,3.03 9.92,1.42 11.85,1.59 12.31,1.09 0.89,-0.88 0.21,-1.94 -1.51,-2.36 -0.84,-0.21 -6.73,-0.71 -13.07,-1.09 -6.35,-0.42 -11.69,-0.8 -11.86,-0.88 -0.17,-0.13 -0.38,0 -0.55,0.21z"/><path class="fil0" d="M224.71 93.09c0,1.1 6.18,2.78 16.9,4.63 11.94,2.06 15.89,2.18 15.89,0.42 0,-1.09 -1.13,-1.51 -4.83,-1.89 -5.68,-0.55 -24.38,-2.74 -25.43,-2.99 -0.59,-0.12 -1.39,-0.29 -1.77,-0.42 -0.42,-0.12 -0.76,0 -0.76,0.25l0 0z"/><path class="fil0" d="M307.36 97.26c-1.43,1.59 -8.66,24.93 -8.66,27.99 0,1.85 0.68,1.1 1.43,-1.55 1.05,-3.78 7.23,-20.94 8.49,-23.67 0.93,-1.89 1.01,-2.44 0.59,-2.94 -0.67,-0.8 -0.96,-0.8 -1.85,0.17z"/><path class="fil0" d="M291.43 103.69c-0.67,1.47 -1.68,5.88 -2.19,9.33 -0.46,3.24 0.55,2.23 2.11,-2.19 0.8,-2.14 1.8,-4.58 2.31,-5.38 1.05,-1.8 0.8,-3.11 -0.63,-3.11 -0.67,0 -1.14,0.42 -1.6,1.35z"/><path class="fil0" d="M310.68 104.61c-0.75,1.18 -2.94,9.55 -3.27,12.74 -0.3,2.69 0.33,2.94 0.96,0.42 0.26,-0.97 1.31,-4.37 2.31,-7.52 1.06,-3.16 1.9,-5.93 1.9,-6.18 0,-0.84 -1.22,-0.47 -1.9,0.54l0 0z"/><path class="fil0" d="M280.21 107.14c-0.21,0.54 -0.51,2.14 -0.68,3.53 -0.33,3.07 0.42,3.91 1.1,1.26 0.25,-1.01 0.63,-2.48 0.88,-3.28 0.21,-0.8 0.38,-1.73 0.38,-2.02 0,-0.92 -1.26,-0.55 -1.68,0.5l0 0.01z"/><path class="fil0" d="M316.23 108.61c-1.43,2.39 -2.6,9.29 -1.64,9.29 0.21,0 0.68,-1.18 1.1,-2.61 0.38,-1.43 1.17,-3.57 1.76,-4.75 0.55,-1.22 1.01,-2.4 1.01,-2.65 0,-0.96 -1.51,-0.46 -2.23,0.72l0 0z"/><path class="fil0" d="M324.35 110.33c-0.25,0.97 -0.42,2.27 -0.3,2.86 0.13,1.09 0.17,1.09 0.89,-0.51 0.88,-2.01 1.05,-3.65 0.37,-3.91 -0.29,-0.12 -0.67,0.55 -0.96,1.56l0 0z"/><path class="fil0" d="M348.31 151.15c-0.8,1.47 0.5,9.17 1.6,9.54 0.38,0.13 0.54,-0.96 0.59,-3.86 0.04,-2.23 0.08,-4.54 0.08,-5.22 0.04,-1.51 -1.55,-1.85 -2.27,-0.46l0 0z"/><path class="fil0" d="M258.81 169.35c-0.67,0.8 -0.17,5.72 0.59,5.72 0.71,0 1.51,-5.04 0.96,-5.8 -0.54,-0.67 -0.96,-0.63 -1.55,0.08l0 0z"/><path class="fil0" d="M248.55 181.67c-0.17,0.13 -0.29,1.05 -0.29,2.06 0,3.32 1.05,4.33 1.38,1.3 0.09,-0.96 0.34,-2.18 0.51,-2.73 0.25,-0.75 0.17,-0.92 -0.51,-0.92 -0.46,0 -0.96,0.12 -1.09,0.29l0 0z"/><path class="fil0" d="M239.3 188.37c-0.46,0.46 -0.33,7.31 0.09,7.31 0.42,0 1.38,-3.99 1.47,-6.1 0.04,-1.17 -0.84,-1.89 -1.56,-1.21l0 0z"/><path class="fil0" d="M230.68 193.7c-0.88,1.06 -1.85,9.88 -0.96,8.88 0.33,-0.38 2.98,-8.37 2.98,-9.04 0,-0.59 -1.51,-0.47 -2.02,0.16z"/><path class="fil0" d="M215.63 197.57c-0.67,0.42 -0.96,1.26 -1.17,3.03 -0.42,3.53 -3.12,16.56 -4.29,20.64 -1.18,4.12 -1.18,4.12 -0.34,3.41 1.73,-1.43 4.37,-8.75 6.39,-17.62 1.56,-6.81 1.73,-8.62 0.88,-9.46 -0.54,-0.54 -0.71,-0.54 -1.47,0z"/><path class="fil0" d="M221.81 197.53c-0.96,1.14 -1.97,13.12 -1.13,13.37 0.21,0.08 1.18,-2.78 2.18,-6.35 1.39,-4.92 1.73,-6.6 1.39,-7.02 -0.63,-0.76 -1.81,-0.76 -2.44,0z"/><path class="fil0" d="M197.51 210.48c-0.25,0.29 -0.54,3.4 -0.71,6.89 -0.13,3.53 -0.38,6.73 -0.51,7.11 -0.21,0.5 -0.12,0.67 0.26,0.54 1.01,-0.33 3.32,-8.82 3.36,-12.36 0,-2.31 -1.34,-3.53 -2.4,-2.18l0 0z"/><path class="fil0" d="M185.87 218.05c-0.76,1.22 -1.26,4.79 -0.72,5.12 0.21,0.13 0.68,-0.63 1.06,-1.72 0.37,-1.05 0.96,-2.27 1.34,-2.69 0.38,-0.42 0.55,-0.97 0.38,-1.18 -0.46,-0.75 -1.43,-0.5 -2.06,0.47z"/><path class="fil0" d="M171.4 222.46c-1.05,0.38 -2.9,4.96 -2.19,5.38 0.21,0.13 0.8,-0.59 1.3,-1.55 0.51,-1.01 1.18,-2.15 1.56,-2.57 0.71,-0.8 0.29,-1.6 -0.67,-1.26l0 0z"/><path class="fil0" d="M156.18 229.82c-1.05,1.68 -1.85,4.07 -1.51,4.41 0.12,0.13 0.54,-0.46 0.92,-1.39 0.38,-0.88 1.05,-2.14 1.47,-2.77 0.93,-1.26 0.97,-1.6 0.38,-1.6 -0.25,0 -0.8,0.63 -1.26,1.35z"/><path class="fil0" d="M214.41 140.3c-1.26,0.97 -0.5,2.44 2.19,4.17 4.62,2.94 8.95,4.83 8.95,3.91 0,-0.26 -4.2,-4.25 -7.27,-6.9 -2.18,-1.89 -2.69,-2.02 -3.87,-1.18l0 0z"/><path class="fil0" d="M314.47 30.92c-5.63,2.39 -6.98,3.32 -6.27,4.5 0.26,0.37 0.76,0.75 1.14,0.84 1.01,0.21 4.62,-1.73 8.41,-4.42 5.21,-3.78 4.24,-4.08 -3.28,-0.92z"/><path class="fil0" d="M287.35 43.87c-10.09,3.78 -32.33,12.73 -37.62,15.17 -1.6,0.72 -6.69,2.86 -11.31,4.71 -8.83,3.53 -17.91,7.53 -19.47,8.58 -0.58,0.37 -0.96,1.05 -0.96,1.64 0,0.88 0.21,1.05 1.3,1.05 2.4,0 43.34,-16.86 64.07,-26.36 6.05,-2.78 15.34,-7.74 15.34,-8.2 0,-0.71 -1.85,-0.17 -11.35,3.41l0 0z"/><path class="fil0" d="M322.54 233.98c-1.93,1.09 -0.08,3.19 5.84,6.6 6.39,3.66 15.64,6.94 11.9,4.25 -3.53,-2.61 -15.43,-10.6 -16.18,-10.89 -0.47,-0.17 -1.18,-0.17 -1.56,0.04l0 0z"/><path class="fil0" d="M292.31 244.07c-17.57,13.62 -25.89,18.24 -43,24.09 -10.64,3.61 -16.31,5.84 -16.52,6.51 -0.59,1.81 16.94,-1.93 26.56,-5.71 14.3,-5.55 31.95,-16.27 40.11,-24.39 2.23,-2.18 2.73,-3.61 1.68,-4.66 -1.26,-1.26 -2.73,-0.55 -8.83,4.16l0 0z"/><path class="fil0" d="M212.52 277.66c-2.9,1.39 -6.72,3.03 -8.49,3.66 -1.81,0.63 -3.28,1.34 -3.28,1.55 0,0.67 6.35,-0.08 10.3,-1.22 2.1,-0.59 5,-1.68 6.52,-2.44 2.44,-1.22 2.73,-1.47 2.73,-2.6 0,-2.02 -1.68,-1.81 -7.78,1.05l0 0z"/></g><text x="0" y="346.74" fill="#000000" font-size="5px" font-weight="bold" font-family="'Helvetica Neue', Helvetica, Arial-Unicode, Arial, Sans-serif">Created by Przemyslawk</text><text x="0" y="351.74" fill="#000000" font-size="5px" font-weight="bold" font-family="'Helvetica Neue', Helvetica, Arial-Unicode, Arial, Sans-serif">from the Noun Project</text></svg>