<svg xmlns="http://www.w3.org/2000/svg" xmlns:xlink="http://www.w3.org/1999/xlink" xml:space="preserve" version="1.1" style="shape-rendering:geometricPrecision;text-rendering:geometricPrecision;image-rendering:optimizeQuality;" viewBox="0 0 405.68 545.875" x="0px" y="0px" fill-rule="evenodd" clip-rule="evenodd"><defs><style type="text/css">
   
    .fil0 {fill:white}
   
  </style></defs><g><path class="fil0" d="M315.16 1.15c-2.14,2.14 -1.38,5.19 1.78,7.13 1.03,0.63 1.63,1.5 2.42,3.52 0.59,1.47 2.53,5.43 4.36,8.79 7.88,14.69 11.2,25.34 13.85,44.75 0.88,6.29 1.23,25.22 0.64,32.11 -2.42,26.61 -12.12,52.27 -30.06,79.56 -10.33,15.68 -25.46,31.83 -42.96,45.85 -12.4,9.9 -33.5,22.81 -49.58,30.26 -15.09,7.01 -34.53,13.78 -53.06,18.53 -14.77,3.8 -44.2,9.54 -44.51,8.67 -0.16,-0.51 -4.83,-7.48 -9.11,-13.62 -2.49,-3.57 -8.75,-13.82 -8.75,-14.34 0,-0.11 -0.28,-0.55 -0.63,-0.95 -0.32,-0.35 -1.63,-2.69 -2.9,-5.18 -1.5,-2.97 -2.61,-4.64 -3.24,-4.95 -0.52,-0.24 -3.37,-0.72 -6.3,-1.07 -9.94,-1.15 -15.6,-2.18 -19.13,-3.45 -4.27,-1.54 -6.25,-1.42 -7.88,0.44 -0.63,0.63 -1.1,1.42 -1.1,1.74 0,0.28 -0.64,1.19 -1.35,2.02 -2.02,2.18 -3.13,5.7 -5.74,18.22 -3.57,16.86 -8.44,35.28 -12.71,48.11 -4.32,12.87 -15.96,42.61 -28.71,73.26 -9.07,21.74 -10.5,25.66 -10.5,28.59 0,2.65 2.5,4.27 4.79,3.09 0.52,-0.32 1.23,-0.28 2.38,0 3.17,0.87 8.55,1.58 14.81,1.98 3.49,0.19 7.25,0.47 8.32,0.59 1.11,0.12 9.3,0.63 18.21,1.19 31.21,1.9 34.1,2.21 70.81,7.56 31.6,4.55 38.17,5.43 47.83,6.14 6.06,0.43 6.57,0.55 6.38,1.23 -0.08,0.39 0.04,0.71 0.27,0.71 0.24,0 0.44,-0.28 0.44,-0.6 0,-0.39 0.43,-0.59 1.38,-0.59 1.23,0 18.26,3.49 26.85,5.51 4.48,1.06 5.11,1.02 6.58,-0.2 1.98,-1.67 1.74,-3.37 -1.23,-8.44 -2.77,-4.83 -9.9,-15.52 -10.81,-16.27 -1.11,-0.91 -0.67,-1.47 1.5,-1.71 3.77,-0.47 20,-4.98 27.13,-7.56 3.84,-1.42 9.74,-3.72 13.07,-5.19 7.68,-3.28 27.91,-13.38 33.14,-16.55 6.22,-3.72 20.91,-13.5 25.94,-17.22 17.82,-13.23 39.36,-32.91 51.83,-47.4 8.24,-9.51 17.98,-23.64 25.03,-36.16 2.22,-4 4.36,-7.4 4.75,-7.64 0.4,-0.2 0.63,-0.59 0.52,-0.91 -0.12,-0.32 0.59,-2.14 1.54,-4.08 2.93,-5.78 9.58,-21.07 11.41,-26.1 0.91,-2.61 1.94,-5.03 2.25,-5.38 0.32,-0.36 0.48,-0.83 0.36,-1.03 -0.12,-0.16 0.71,-3.25 1.9,-6.85 3.21,-9.94 5.86,-22.73 7.6,-36.79 0.87,-7.05 0.95,-28.99 0.16,-36.83 -2.3,-22.65 -9.07,-48.43 -17.74,-67.47 -1.19,-2.66 -3.33,-7.37 -4.71,-10.46 -6.58,-14.65 -14.53,-27.99 -24.99,-41.85 -7.72,-10.26 -18.61,-20.24 -34.13,-31.21 -3.25,-2.29 -3.96,-2.65 -5.47,-2.65 -1.42,0 -1.98,0.24 -2.93,1.15l0 0zm29.15 32.71c7.4,9.26 14.45,21.86 20.98,37.62 4.56,10.96 10.42,29.58 12.68,40.19 4.07,19.28 3.96,39.36 -0.44,61.38 -6.69,33.66 -17.98,60.58 -37.74,90.05 -20.15,29.97 -33.89,46.05 -51.95,60.66 -14.14,11.48 -24.63,18.49 -42.93,28.75 -15.84,8.87 -23.68,12.79 -41.69,20.75 -16.79,7.44 -18.77,8.08 -38.77,12.59 -14.38,3.25 -16.47,3.88 -17.54,5.19 -0.95,1.19 -0.6,3.96 0.95,6.65 1.54,2.77 11.08,16.04 15.12,21.03 1.39,1.74 2.5,3.17 2.42,3.25 -0.04,0.04 -3.05,-0.4 -6.69,-1.03 -11.57,-1.98 -57.54,-8.91 -68.23,-10.26 -11.88,-1.5 -22.34,-2.41 -41.58,-3.6 -7.17,-0.44 -16.71,-1.15 -21.19,-1.59 -4.47,-0.43 -10.53,-0.79 -13.5,-0.79l-5.43 0 6.5 -16.15c11.8,-29.23 22.57,-57.26 29.74,-77.3 2.57,-7.29 7.64,-24.36 11.01,-37.03 3.08,-11.68 5.58,-20.35 5.94,-20.71 0.27,-0.27 -0.04,-0.71 3.96,5.86 4.11,6.74 12.79,19.8 16.07,24.16 1.27,1.7 2.5,3.52 2.7,4.08 0.23,0.55 0.79,1.3 1.3,1.62 1.47,0.95 6.46,1.55 10.81,1.27 3.73,-0.2 39.52,-6.54 53.07,-9.35 29.85,-6.21 59.2,-16.47 81.65,-28.47 24.79,-13.26 41.38,-25.34 59.12,-43.16 13.42,-13.47 21.54,-23.96 31.09,-40.23 13.58,-23.13 21.02,-43.84 23.95,-66.57 3.29,-25.58 -0.75,-56.15 -10.13,-76.58l-1.75 -3.77 3.69 3.77c1.98,2.09 5.06,5.54 6.81,7.72l0 0zm31.83 44.62c0.08,1.55 -0.63,0.52 -1.82,-2.81 -1.9,-5.18 -1.9,-5.34 0.04,-1.42 0.99,1.94 1.78,3.88 1.78,4.23zm1.51 2.78c0.24,0.51 1.58,3.4 3.01,6.49l2.53 5.58 -0.99 1.71 -1.03 1.74 -0.75 -2.5c-0.59,-1.98 -0.63,-2.85 -0.32,-4.31 0.44,-2.1 0.16,-2.93 -0.59,-1.86 -0.32,0.39 -0.59,0.67 -0.71,0.55 -0.36,-0.39 -2.22,-6.57 -2.22,-7.4 0,-1.11 0.55,-1.11 1.07,0zm8.04 18.77c0,0.23 -0.52,1.46 -1.19,2.69l-1.15 2.22 -0.39 -1.47c-0.84,-3.25 -0.92,-3.72 -0.52,-4.2 0.24,-0.27 0.63,-1.34 0.91,-2.41l0.48 -1.9 0.91 2.29c0.51,1.23 0.95,2.5 0.95,2.78l0 0zm2.73 7.08c0.04,0.2 -0.71,1.55 -1.62,2.97l-1.67 2.58 -0.43 -1.94c-0.36,-1.66 -0.32,-2.18 0.24,-3.33 0.39,-0.71 0.91,-2.22 1.18,-3.28l0.52 -2.02 0.91 2.33c0.47,1.27 0.87,2.46 0.87,2.69l0 0zm1.62 5.31c0.44,1.47 0.8,2.85 0.8,3.05 0,0.2 -0.92,1.78 -2.06,3.52l-2.06 3.17 -0.44 -2.73c-0.39,-2.69 -0.39,-2.73 1.07,-5.74 0.83,-1.66 1.51,-3.25 1.51,-3.53 0,-1.1 0.39,-0.31 1.18,2.26l0 0zm2.42 8.99l0.47 2.42 -2.53 4c-2.14,3.32 -2.57,3.84 -2.81,3.12 -0.6,-2.02 -0.28,-3.68 1.23,-6.61 0.83,-1.62 1.74,-3.64 2.02,-4.47 0.59,-1.91 0.99,-1.55 1.62,1.54l0 0zm2.1 8.67c0.28,1.55 0.12,1.78 -3.21,6.34 -3.09,4.2 -3.48,4.63 -3.6,3.68 -0.08,-0.71 0.67,-2.34 2.45,-5.35 1.43,-2.37 2.81,-4.91 3.05,-5.62 0.56,-1.54 0.99,-1.23 1.31,0.95zm1.74 8.95c0.83,4.56 1.11,4 -6.61,12.24l-2.77 2.97 0.23 -2.93c0.24,-2.77 0.36,-3.09 2.54,-6.14 1.26,-1.78 3.05,-4.59 4,-6.26 0.91,-1.7 1.78,-2.93 1.94,-2.77 0.12,0.16 0.43,1.47 0.67,2.89l0 0zm1.82 11.29l0.24 2.06 -2.26 2.13c-4.2,3.96 -9.82,9.03 -10.06,9.03 -0.11,0 -0.11,-0.55 -0.04,-1.22 0.12,-0.88 0.92,-1.98 2.42,-3.49 2.46,-2.45 7.17,-8.16 8.24,-9.98 0.83,-1.42 1.15,-1.11 1.46,1.47zm0.64 8.35l0 2.3 -6.93 6.14c-3.85,3.36 -7.17,6.21 -7.37,6.29 -0.28,0.08 -0.36,-0.19 -0.24,-0.59 0.12,-0.44 0.32,-1.23 0.44,-1.78 0.12,-0.64 0.87,-1.47 1.9,-2.14 1.98,-1.31 8.87,-8.24 10.69,-10.73 0.67,-0.95 1.31,-1.74 1.39,-1.74 0.08,0 0.12,1.03 0.12,2.25l0 0zm0.39 8.16l0 2.49 -8.39 6.78c-4.64,3.72 -8.48,6.73 -8.56,6.65 -0.08,-0.08 0.04,-0.79 0.28,-1.62 0.36,-1.23 0.75,-1.71 1.98,-2.26 1.74,-0.79 9.62,-8.4 12.47,-12.08 1.07,-1.35 2.02,-2.45 2.06,-2.45 0.08,0 0.16,1.1 0.16,2.49l0 0zm0 10.18l0 2.77 -2.65 1.74c-1.51,0.91 -5.19,3.29 -8.24,5.23 -3.05,1.98 -6.18,3.96 -6.97,4.43l-1.46 0.87 0.39 -1.46c0.28,-1.23 0.72,-1.7 2.22,-2.53 2.81,-1.59 6.1,-4.2 11.56,-9.23 2.74,-2.54 4.99,-4.56 5.07,-4.59 0.04,0 0.08,1.26 0.08,2.77l0 0zm-0.55 10.85c-0.12,0.55 -1.75,1.66 -4.83,3.4 -15.33,8.48 -15.8,8.71 -15.92,8.16 -0.24,-1.15 0.71,-2.1 3.05,-2.97 3.76,-1.35 12.55,-7.44 16.07,-11.13l1.59 -1.62 0.12 1.66c0.08,0.91 0.04,2.06 -0.08,2.5l0 0zm-0.83 6.93c-0.28,1.98 -0.32,2.06 -2.3,2.89 -1.15,0.47 -6.22,2.97 -11.29,5.58 -8,4.04 -9.22,4.56 -8.99,3.76 0.36,-1.11 0.95,-1.9 1.47,-1.9 1.66,0 14.33,-7.28 19.13,-11.01 1.1,-0.83 2.05,-1.5 2.13,-1.42 0.04,0.04 0,1.03 -0.15,2.1l0 0zm-1.31 8c-0.32,1.26 -0.71,1.5 -7.84,4.83 -8.16,3.84 -16,7.4 -16.24,7.4 -0.12,0 0.08,-0.47 0.36,-1.03 0.43,-0.87 1.46,-1.38 5.27,-2.73 2.57,-0.91 5.34,-1.98 6.09,-2.38 2.18,-1.1 11.25,-7.16 11.88,-7.92 0.52,-0.63 0.6,-0.63 0.72,-0.11 0.08,0.35 -0.04,1.22 -0.24,1.94l0 0zm-1.47 8.63l-0.67 3.56 -4.04 1.47c-2.18,0.79 -6.33,2.41 -9.19,3.56 -2.85,1.15 -6.93,2.73 -9.02,3.49l-3.81 1.38 0.64 -1.46c0.35,-0.79 0.71,-1.67 0.79,-1.86 0.08,-0.24 1.66,-0.88 3.48,-1.47 3.41,-1.07 12,-5.74 18.66,-10.14 1.98,-1.3 3.64,-2.29 3.72,-2.21 0.08,0.07 -0.16,1.74 -0.56,3.68l0 0zm-2.93 11.48l-1.22 3.96 -1.51 0.28c-1.78,0.32 -24.19,6.41 -24.67,6.73 -0.59,0.36 -0.4,-0.59 0.4,-2.14 0.71,-1.42 0.91,-1.5 3.64,-1.98 4.4,-0.75 15.32,-5.7 21.54,-9.74 1.55,-0.99 2.81,-1.62 2.89,-1.42 0.08,0.23 -0.39,2.17 -1.07,4.31zm-3.32 9.98l-0.87 2.42 -6.74 1.74c-3.68,0.95 -10.05,2.57 -14.13,3.64l-7.37 1.9 1.15 -2.29c1.11,-2.22 1.23,-2.3 2.77,-2.3 0.87,0 2.93,-0.28 4.6,-0.63 3,-0.6 18.92,-5.71 20.23,-6.46 1.23,-0.71 1.27,-0.47 0.36,1.98l0 0zm-2.89 8.44l-0.6 1.74 -3.24 0.87c-3.53,0.95 -26.3,7.44 -27.13,7.72 -0.32,0.12 -0.08,-0.63 0.55,-1.74 0.99,-1.86 1.15,-1.98 3.09,-2.22 3.96,-0.51 10.46,-2.26 18.85,-5.11 4.67,-1.58 8.63,-2.93 8.79,-2.97 0.16,0 0,0.76 -0.31,1.71zm-296.55 4.99c0.28,0.47 -0.48,0.47 -1.58,0 -0.72,-0.32 -0.68,-0.36 0.27,-0.36 0.6,-0.04 1.19,0.12 1.31,0.36zm293.14 3.04c-0.63,1.51 -1.39,2.9 -1.58,3.17 -0.36,0.44 -9.59,3.53 -16.75,5.63 -3.69,1.06 -15.25,3.68 -15.65,3.52 -0.19,-0.08 0.44,-1.31 1.39,-2.73l1.7 -2.62 2.5 -0.27c3.76,-0.4 6.45,-0.95 10.85,-2.3 4.39,-1.35 13.94,-4.95 16.27,-6.22 2.46,-1.26 2.58,-1.07 1.27,1.82zm-301.77 -0.47c11.64,1.94 10.61,1.54 12.71,5.03 0.51,0.83 0.75,1.5 0.55,1.5 -0.16,0 -1.74,-0.51 -3.48,-1.15 -4.56,-1.66 -15.29,-4.79 -19.13,-5.58 -3.36,-0.67 -4.79,-1.58 -2.45,-1.58 0.63,0 5.98,0.79 11.8,1.78l0 0zm2.49 6.3c4.04,0.99 8.44,1.98 9.82,2.25 2.34,0.44 2.54,0.56 3.53,2.22 0.55,0.95 0.91,1.82 0.83,1.9 -0.12,0.12 -1.51,-0.24 -3.13,-0.79 -5.82,-2.02 -16.83,-5.03 -18.97,-5.23 -1.98,-0.2 -2.3,-0.35 -3.09,-1.54 -0.47,-0.75 -0.87,-1.43 -0.87,-1.51 0,-0.2 0.87,0 11.88,2.7l0 0zm294.53 4.75l-1.23 2.49 -9.74 2.66c-9.11,2.41 -23.72,5.58 -24.12,5.22 -0.23,-0.24 2.26,-3.8 2.66,-3.8 2.53,0 9.58,-1.11 13.66,-2.18 4.87,-1.22 13.66,-4.27 17.66,-6.06 0.99,-0.43 1.9,-0.83 2.06,-0.83 0.16,-0.04 -0.24,1.11 -0.95,2.5l0 0zm-290.37 2.45c5.23,1.23 10.14,2.38 10.89,2.58 1.11,0.27 1.66,0.75 2.69,2.53 0.75,1.23 1.27,2.34 1.15,2.42 -0.08,0.12 -1.94,-0.52 -4.08,-1.35 -3.4,-1.35 -16.04,-6.02 -19.92,-7.33 -1.42,-0.51 -2.33,-1.74 -0.99,-1.34 0.44,0.12 5.03,1.23 10.26,2.49l0 0zm2.93 7.09c4.47,1.39 9.62,2.93 11.4,3.41l3.25 0.87 1.98 3.01c1.11,1.62 1.94,3.05 1.86,3.09 -0.04,0.07 -2.69,-1.11 -5.82,-2.62 -5.19,-2.45 -15.52,-6.77 -18.97,-7.92 -1.38,-0.43 -3.28,-2.41 -2.33,-2.41 0.23,0 4.12,1.15 8.63,2.57l0 0zm283.56 -1.9c0,0.2 -0.6,1.27 -1.31,2.46l-1.31 2.17 -14.81 3.01c-8.15,1.67 -16.03,3.33 -17.5,3.65 -1.5,0.35 -2.69,0.55 -2.69,0.43 0,-0.12 0.63,-1.07 1.42,-2.14l1.43 -1.94 2.85 0c4.24,0 9.03,-0.67 13.9,-1.98 4.44,-1.19 15.64,-4.87 16.79,-5.54 0.79,-0.48 1.23,-0.48 1.23,-0.12l0 0zm-278.41 10.18c4.27,1.58 9.03,3.32 10.53,3.84 2.73,0.87 2.73,0.91 1.43,1.19 -0.99,0.19 -1.86,0.04 -3.57,-0.72 -1.23,-0.55 -5.34,-2.21 -9.14,-3.76 -6.22,-2.49 -8.36,-3.48 -7.33,-3.48 0.2,0 3.84,1.3 8.08,2.93zm272.39 0.67c-0.52,0.91 -1.27,1.78 -1.7,1.98 -2.46,1.07 -32.67,7.09 -35.44,7.09 -0.24,0 0.03,-0.71 0.67,-1.55 1.07,-1.5 1.15,-1.54 4.28,-1.78 1.74,-0.16 4.51,-0.43 6.13,-0.67 3.09,-0.44 19.76,-4.52 23.96,-5.9 3.17,-1.03 3.17,-1.03 2.1,0.83l0 0zm-267.92 5.58c-0.35,0.16 -2.25,0.28 -4.23,0.28l-3.57 0.04 -0.67 -1.7c-0.4,-0.91 -0.71,-1.78 -0.71,-1.9 0,-0.16 2.21,0.47 4.91,1.38 3.28,1.07 4.71,1.71 4.27,1.9zm263.8 1.19c-1.46,2.42 -2.93,4.6 -3.37,4.95 -0.31,0.2 -1.62,0.52 -2.93,0.67 -3.72,0.4 -20.07,2.97 -25.54,3.96 -2.73,0.52 -5.7,1.07 -6.65,1.19l-1.74 0.24 1.9 -2.42 1.86 -2.41 1.9 0.24c1.03,0.16 4.2,0.08 7.01,-0.16 5.62,-0.44 15.72,-2.77 22.85,-5.23 4.51,-1.58 5.11,-1.7 4.71,-1.03l0 0zm-6.49 9.66c0,0.68 -2.66,3.77 -3.33,3.92 -5.31,1.19 -36.19,5.55 -36.59,5.19 -0.08,-0.12 0.59,-1.11 1.54,-2.26l1.75 -2.02 2.97 0.2c5.11,0.32 12.27,-0.39 20.51,-2.1 4.28,-0.87 8.87,-1.94 10.18,-2.33 2.73,-0.87 2.97,-0.91 2.97,-0.6l0 0zm-6.42 8.79c-1.9,2.66 -4.47,5.63 -4.83,5.63 -0.75,0 -22.77,1.58 -29.34,2.14 -3.49,0.27 -6.42,0.47 -6.54,0.35 -0.08,-0.08 0.6,-0.91 1.51,-1.82l1.66 -1.62 7.8 -0.04c7.65,-0.04 8.04,-0.04 15.76,-1.71 4.36,-0.91 9.35,-2.09 11.09,-2.61 1.74,-0.55 3.21,-0.99 3.29,-0.99 0.08,-0.04 -0.12,0.28 -0.4,0.67l0 0zm-8.24 9.9c0,0.16 -0.83,1.11 -1.86,2.14l-1.9 1.82 -5.14 0.2c-2.82,0.12 -9.23,0.6 -14.26,1.03 -4.99,0.48 -10.89,0.83 -13.07,0.83l-3.92 0 2.06 -2.1 2.06 -2.09 2.69 0.27c5.51,0.64 13.7,0.4 21.74,-0.63 4.32,-0.55 8.48,-1.19 9.23,-1.35 1.86,-0.47 2.37,-0.47 2.37,-0.12l0 0zm-9.89 10.58l-2.54 2.57 -10.33 0c-10.46,0 -23.96,-0.67 -23.96,-1.23 0,-0.15 0.51,-0.67 1.11,-1.1 0.99,-0.68 1.42,-0.76 3.88,-0.44 1.5,0.16 5.5,0.44 8.87,0.59 5.26,0.24 7.01,0.16 12.23,-0.59 3.33,-0.48 7.53,-1.19 9.31,-1.58 1.74,-0.36 3.37,-0.72 3.6,-0.76 0.2,0 -0.79,1.11 -2.18,2.54l0.01 0zm-31.49 6.33c6.02,0.87 20.16,0.6 24.71,-0.43 0.95,-0.24 0.87,-0.08 -0.75,1.62 -3.44,3.57 -3.36,3.53 -8.43,2.81 -4.24,-0.59 -17.51,-2.25 -22.77,-2.81 -1.39,-0.16 -2.97,-0.39 -3.53,-0.55l-1.03 -0.28 1.23 -1.03 1.23 -1.03 2.69 0.59c1.47,0.28 4.48,0.8 6.65,1.11l0 0zm-9.58 4.56c4.83,1.18 14.77,2.25 23.01,2.49l3.96 0.08 -2.89 2.42 -2.85 2.45 -5.82 -1.5c-3.21,-0.83 -9.47,-2.34 -13.94,-3.37 -10.3,-2.38 -9.35,-2.02 -8.52,-2.97 0.95,-1.03 1.51,-0.99 7.05,0.4zm-7.96 4.55c4.44,1.58 15.6,3.92 22.06,4.63l4.51 0.52 -1.86 1.46c-1.62,1.27 -2.02,1.39 -3.13,1.07 -0.71,-0.16 -5.26,-1.07 -10.17,-1.94 -4.91,-0.91 -11.29,-2.1 -14.22,-2.73l-5.35 -1.07 2.18 -1.66c1.19,-0.91 2.14,-1.67 2.14,-1.67 0,0 1.74,0.64 3.84,1.39l0 0zm-1.07 7.88c4.4,0.87 15.37,2.22 18.1,2.22 1.23,0 2.34,0.16 2.45,0.32 0.12,0.19 -0.31,0.75 -0.95,1.22l-1.18 0.83 -4.44 -0.79c-2.45,-0.43 -9.74,-1.58 -16.16,-2.57 -6.41,-0.99 -11.95,-1.82 -12.23,-1.9 -0.32,-0.04 0.28,-0.64 1.31,-1.31l1.9 -1.23 4 1.31c2.21,0.71 5.46,1.58 7.2,1.9l0 0zm-15.4 3.41c4.87,1.66 11.64,2.97 20.87,4 7.44,0.87 7.8,0.95 7.12,1.58 -0.67,0.67 -1.14,0.63 -10.01,-0.63 -9.63,-1.35 -24.56,-4.12 -24.56,-4.52 0,-0.31 2.06,-1.58 2.62,-1.62 0.2,0 1.98,0.55 3.96,1.19zm-7.17 4.55c7.01,2.42 13.23,3.41 26.65,4.4l3.68 0.23 -2.53 1.71 -2.54 1.7 -3.12 -0.75c-1.71,-0.4 -6.42,-1.39 -10.46,-2.14 -8.31,-1.59 -19,-4.16 -19,-4.56 0,-0.19 2.73,-1.94 3.08,-1.98 0.08,0 1.98,0.64 4.24,1.39l0 0zm-9.03 3.8c1.03,0.44 3.37,1.23 5.15,1.74 3.64,1.07 17.34,3.25 23.09,3.69l3.76 0.27 -3.29 2.1 -3.29 2.1 -3.64 -1.19c-2.02,-0.67 -8.71,-2.65 -14.93,-4.39 -6.21,-1.74 -11.56,-3.29 -11.88,-3.41 -0.43,-0.16 -0.19,-0.43 0.8,-0.95 1.74,-0.95 1.94,-0.95 4.23,0.04l0 0zm-7.52 4.16c4.87,2.18 14.61,4.91 28.23,7.92 0.91,0.2 0.83,0.28 -0.99,1.35l-1.98 1.14 -14.93 -4.83c-8.23,-2.65 -14.96,-4.91 -14.96,-5.03 0,-0.15 1.98,-1.54 2.25,-1.58 0.04,0 1.11,0.48 2.38,1.03l0 0zm-0.87 7.01c4.87,1.82 15.48,4.51 20.59,5.23l1.98 0.27 -1.47 0.76c-1.46,0.75 -1.46,0.75 -4.55,-0.24 -1.7,-0.52 -6.73,-1.94 -11.21,-3.17 -11.12,-3.05 -16.35,-4.59 -16.79,-4.95 -0.16,-0.2 0.36,-0.67 1.19,-1.11l1.55 -0.79 2.97 1.5c1.62,0.8 4.23,1.94 5.74,2.5l0 0zm-11.84 1.78c1.94,0.87 5.07,2.06 6.93,2.61 2.69,0.84 16.27,4.08 19.56,4.68 0.63,0.12 0.47,0.31 -0.87,1.03 -0.91,0.47 -1.98,0.87 -2.38,0.87 -0.39,-0.04 -7.68,-2.06 -16.23,-4.52l-15.53 -4.43 2.06 -1.07c1.15,-0.56 2.26,-0.95 2.46,-0.87 0.24,0.08 2.02,0.87 4,1.7l0 0zm-9.15 4.24c5.9,2.37 19.17,5.9 25.34,6.77 2.7,0.36 2.89,0.55 1.35,1.39 -1.66,0.91 -2.57,0.91 -4.75,0.15 -0.95,-0.35 -5.11,-1.62 -9.27,-2.81 -8.55,-2.49 -17.07,-5.22 -18.17,-5.78 -0.72,-0.4 -0.72,-0.43 0.19,-0.95 0.52,-0.28 1.15,-0.47 1.35,-0.36 0.24,0.08 2.02,0.8 3.96,1.59l0 0zm-5.78 4.16c4.75,1.94 19.12,5.82 24.19,6.53l2.18 0.32 -2.85 1.3 -2.81 1.31 -8.87 -2.69c-11.09,-3.37 -21.7,-6.89 -21.7,-7.17 0,-0.44 3.72,-1.94 4.35,-1.78 0.32,0.08 2.82,1.07 5.51,2.18l0 0zm-9.94 4.15c5.82,2.3 12.08,4.2 19.68,5.94 2.61,0.6 5.03,1.15 5.35,1.27 0.55,0.16 -3.57,2.1 -4.52,2.1 -0.75,0 -17.94,-5.74 -22.45,-7.48 -2.3,-0.88 -4.71,-1.79 -5.35,-2.06l-1.15 -0.44 1.39 -0.71c0.75,-0.44 1.43,-0.75 1.51,-0.79 0.07,0 2.57,0.99 5.54,2.17zm-8.79 3.21c4.39,2.06 10.37,4.12 18.81,6.42 5.42,1.5 5.62,1.62 4.51,2.06 -2.97,1.14 -4.55,1.38 -5.86,0.83 -1.19,-0.48 -4.59,-1.78 -19.24,-7.25l-6.5 -2.45 1.55 -0.68c0.83,-0.39 1.82,-0.71 2.17,-0.71 0.36,-0.04 2.42,0.79 4.56,1.78l0 0zm-9.23 3.37c4.28,2.18 13.03,5.18 19.37,6.69 2.09,0.51 3.76,1.07 3.68,1.19 -0.08,0.16 -1.15,0.51 -2.34,0.79l-2.22 0.51 -4.43 -1.86c-18.81,-7.92 -20.55,-8.71 -19.84,-8.99 1.27,-0.51 1.62,-0.39 5.78,1.67l0 0zm-6.73 2.85c3.44,1.78 8.24,3.8 12.35,5.23 3.73,1.26 6.89,2.41 7.05,2.61 0.6,0.47 -1.98,0.83 -2.85,0.4 -1.19,-0.64 -17.9,-7.25 -22.21,-8.8l-3.76 -1.3 1.58 -0.48c0.87,-0.28 1.7,-0.51 1.9,-0.51 0.16,-0.04 2.81,1.26 5.94,2.85zm-11.76 1.03c1.94,0.83 8,3.09 13.42,4.99 9.39,3.28 11.45,4.16 10.06,4.16 -0.36,0 -0.95,0.31 -1.31,0.75 -0.63,0.71 -0.91,0.63 -8.27,-2.34 -8.63,-3.44 -10.85,-4.2 -17.5,-5.94 -2.62,-0.67 -5.03,-1.31 -5.35,-1.46 -0.48,-0.2 2.57,-1.15 5.19,-1.67 0.12,0 1.82,0.64 3.76,1.51zm-4.4 8.35l1.98 0.76 -1.98 -0.24c-1.18,-0.12 -2.29,-0.52 -2.77,-0.99l-0.79 -0.79 0.79 0.23c0.44,0.12 1.7,0.6 2.77,1.03zm20.95 6.81c1.7,0.48 2.77,1.11 1.82,1.07 -0.67,0 -4.31,-1.5 -3.8,-1.5 0.2,-0.04 1.07,0.16 1.98,0.43zm-13.58 1.19c4.91,1.39 5.62,1.94 0.91,0.72 -1.7,-0.44 -3.56,-0.8 -4.16,-0.8 -0.55,0 -1.27,-0.27 -1.54,-0.59 -0.72,-0.87 -0.24,-0.79 4.79,0.67l0 0zm7.09 2.1c0.75,0.28 1.11,0.52 0.79,0.52 -0.32,0 -1.23,-0.24 -1.98,-0.52 -0.75,-0.28 -1.11,-0.51 -0.79,-0.51 0.31,0 1.22,0.23 1.98,0.51zm9.03 2.81c4.03,1.23 6.25,2.14 5.02,2.14 -0.51,0 -10.37,-3.52 -9.97,-3.52 0.15,-0.04 2.37,0.59 4.95,1.38zm-3.69 4.52c3.92,1.07 8.32,2.21 9.78,2.61 2.34,0.55 4.36,1.78 3.81,2.34 -0.12,0.12 -2.54,-0.72 -5.43,-1.79 -6.06,-2.33 -15.13,-4.75 -17.66,-4.75 -1.31,0 -1.86,-0.2 -2.18,-0.75 -0.36,-0.75 -0.32,-0.75 2.1,-0.2 1.35,0.32 5.66,1.47 9.58,2.54l0 0zm-4.15 2.73c1.62,0.43 2.61,0.75 2.17,0.79 -1.34,0.08 -5.94,-0.79 -6.29,-1.19 -0.6,-0.55 0.75,-0.43 4.12,0.4l0 0zm4.47 1.11c-0.28,0.08 -0.75,0.08 -0.99,0 -0.28,-0.12 -0.08,-0.2 0.47,-0.2 0.56,0 0.76,0.08 0.52,0.2z"/><path class="fil0" d="M354.01 134.12c0,0.2 0.47,1.98 1.03,4.04 0.55,2.1 0.95,4.44 0.87,5.35 -0.12,1.42 0,1.62 0.75,1.74 1.35,0.2 1.82,-1.11 1.31,-3.64 -0.52,-2.46 -2.93,-7.77 -3.57,-7.77 -0.19,0 -0.39,0.12 -0.39,0.28l0 0z"/><path class="fil0" d="M350.96 162.2c0.12,0.63 0.71,3.09 1.27,5.5 0.59,2.46 1.15,6.22 1.26,8.59 0.2,3.73 0.32,4.28 0.91,4.28 1.35,0 1.51,-1.7 0.6,-6.77 -0.67,-3.92 -3.17,-12.08 -3.84,-12.47 -0.32,-0.2 -0.36,0.08 -0.2,0.87l0 0z"/><path class="fil0" d="M341.34 189.05c0,0.07 0.63,2.61 1.38,5.58 0.99,3.8 1.31,5.86 1.15,6.81 -0.24,1.27 -0.2,1.35 0.67,1.23 1.59,-0.2 1.47,-2.58 -0.43,-7.88 -0.91,-2.5 -1.74,-4.83 -1.86,-5.23 -0.16,-0.55 -0.91,-0.99 -0.91,-0.51l0 0z"/><path class="fil0" d="M328.43 194.67c1.5,5.03 6.18,26.89 7.24,33.78 0.4,2.73 1.39,3.48 2.58,2.02 0.91,-1.11 0.83,-2.18 -0.56,-8.91 -1.74,-8.52 -7.8,-27.05 -8.99,-27.45 -0.35,-0.11 -0.43,0.08 -0.27,0.56z"/><path class="fil0" d="M313.22 213.51c0,0.51 0.28,3.05 0.6,5.66 0.35,2.61 0.71,8.36 0.79,12.79 0.08,4.4 0.27,8.2 0.39,8.4 0.16,0.23 0.68,0.39 1.19,0.39 1.66,0 1.9,-1.15 1.66,-7.48 -0.23,-5.94 -1.26,-11.92 -3.04,-17.78 -0.88,-2.81 -1.59,-3.72 -1.59,-1.98l0 0z"/><path class="fil0" d="M296 229.54c1.1,2.9 1.18,18.81 0.15,40.24 -0.47,9.7 -0.39,10.17 1.47,10.17 2.1,0 2.14,-0.43 2.14,-17.62 0,-8.71 -0.2,-17.9 -0.4,-20.39 -0.67,-7.68 -2.02,-13.07 -3.21,-13.07 -0.27,0 -0.31,0.28 -0.15,0.67l0 0z"/><path class="fil0" d="M307.68 232.51c0,2.9 1.03,9.03 1.5,9.23 1.15,0.44 1.78,-0.63 1.55,-2.57 -0.48,-4 -3.05,-9.63 -3.05,-6.66l0 0z"/><path class="fil0" d="M283.68 248.55c0.16,0.83 0.36,4.99 0.48,9.23 0.23,7.64 -0.16,15.21 -1.11,19.92 -0.48,2.61 -0.08,3.6 1.19,2.81 2.29,-1.47 2.69,-20.95 0.59,-30.45 -0.63,-3.01 -1.62,-4.24 -1.15,-1.51l0 0z"/><path class="fil0" d="M229.87 259.6c-18.06,9.5 -27.21,13.54 -41.19,18.18 -11.68,3.84 -22.09,6.37 -40.39,9.7 -15.52,2.81 -23.28,4.47 -23.44,5.03 -0.52,1.54 14.1,0.87 29.18,-1.27 11.29,-1.62 16.12,-2.65 26.14,-5.54 18.14,-5.23 34.05,-12 49.1,-20.91 10.42,-6.18 12.12,-7.53 11.05,-8.83 -0.91,-1.11 -2.61,-0.52 -10.45,3.64l0 0z"/><path class="fil0" d="M274.02 265.98c-0.04,6.45 -0.32,11.28 -1.03,15.99 -0.2,1.55 -0.12,1.87 0.47,2.1 0.44,0.16 0.99,0 1.51,-0.55 0.75,-0.71 0.83,-1.39 0.99,-6.77 0.12,-5.31 -0.48,-15.21 -0.99,-17.11 -0.12,-0.36 -0.4,-0.67 -0.6,-0.67 -0.19,0 -0.35,2.97 -0.35,7.01z"/><path class="fil0" d="M261.74 272.51c0,4.71 -0.79,10.65 -1.78,13.46 -0.79,2.34 -0.75,2.78 0.32,2.62 1.46,-0.2 2.33,-3.53 2.57,-9.9 0.2,-5.74 -0.16,-10.62 -0.75,-10.62 -0.2,0 -0.36,2.02 -0.36,4.44z"/><path class="fil0" d="M61.14 271.56c-0.71,0.44 -1.54,2.65 -3.52,9.66 -1.03,3.57 -3.29,11.17 -5.03,16.95 -1.74,5.78 -3.84,13.19 -4.67,16.47 -0.83,3.29 -2.26,8.44 -3.13,11.49 -2.38,8.23 -5.66,21.62 -5.39,21.9 0.4,0.39 1.35,-1.07 3.21,-4.91 2.1,-4.4 3.25,-7.49 7.76,-20.79 7.96,-23.53 12.99,-42.34 12.99,-48.51 0,-2.14 -0.95,-3.09 -2.22,-2.26l0 0z"/><path class="fil0" d="M247.88 286.17c-0.04,2.97 -0.23,5.23 -0.59,6.22 -0.59,1.66 -0.48,2.22 0.36,2.22 1.82,0 2.65,-4.16 1.86,-8.95 -0.6,-3.45 -0.8,-4.12 -1.27,-4.12 -0.2,0 -0.36,2.06 -0.36,4.63z"/><path class="fil0" d="M231.89 294.29c-0.12,0.51 -0.28,1.58 -0.4,2.45 -0.12,0.84 -0.59,1.91 -1.03,2.3 -1.03,0.99 -0.87,2.06 0.32,2.22 2.13,0.32 3.2,-2.14 2.45,-5.66 -0.47,-2.26 -1.03,-2.82 -1.34,-1.31z"/><path class="fil0" d="M299.6 298.84c-1.94,1.71 -5.62,4.95 -8.12,7.25 -17.62,16.04 -33.82,27.4 -63.4,44.47 -16.75,9.66 -21.22,12.75 -17.3,11.96 3.05,-0.64 11.96,-3.84 16.71,-6.06 13.07,-6.06 18.45,-9.35 33.86,-20.55 18.17,-13.19 26.81,-20.44 36.47,-30.65 6.33,-6.69 7.28,-7.92 6.93,-8.91 -0.44,-1.11 -1.71,-0.52 -5.15,2.49l0 0z"/><path class="fil0" d="M206.7 310.33c0,11.16 -0.47,20.19 -1.19,22.65 -0.67,2.33 1.35,3.48 2.38,1.3 1.38,-3.01 0.63,-34.92 -0.83,-34.92 -0.2,0 -0.36,4.95 -0.36,10.97l0 0z"/><path class="fil0" d="M199.07 318.84c-0.16,1.15 -0.08,2.26 0.12,2.46 0.59,0.59 1.58,-0.52 1.38,-1.59 -0.12,-0.51 -0.27,-1.38 -0.39,-1.94 -0.36,-1.62 -0.87,-1.11 -1.11,1.07l0 0z"/><path class="fil0" d="M103.24 342.76c-5.39,14.45 -7.17,18.85 -11.72,28.95 -1.35,2.97 -1.59,3.8 -1.23,4.47 1.03,1.9 3.05,0.32 5.31,-4.28 2.85,-5.66 10.61,-27.76 12.71,-36.07 1.7,-6.81 1.94,-8.75 1.03,-8.75 -0.12,0 -2.89,7.05 -6.1,15.68z"/><path class="fil0" d="M94.84 337.85c-2.53,7.68 -6.69,18.85 -8.43,22.61 -1.55,3.4 -1.47,4.43 0.35,4.43 0.72,0 1.19,-0.43 1.87,-1.7 2.21,-4 6.73,-18.85 8,-26.21 0.23,-1.43 0.51,-3.05 0.63,-3.69 0.12,-0.59 0.04,-1.06 -0.16,-1.06 -0.24,0 -1.27,2.53 -2.26,5.62z"/><path class="fil0" d="M119.71 334.28c-1.15,1.43 -5.78,15.69 -7.17,22.1 -0.87,3.88 -0.63,5.15 0.87,5.15 1.15,0 1.27,-0.16 2.7,-3.49 0.95,-2.21 0.99,-2.45 0.31,-2.25 -0.79,0.23 -1.06,1.86 2.38,-13.98 0.91,-4.2 1.58,-7.72 1.47,-7.84 -0.08,-0.08 -0.36,0.04 -0.56,0.31z"/><path class="fil0" d="M85.02 340.22c-2.22,5.23 -6.21,15.92 -6.21,16.6 0,0.35 0.23,0.87 0.55,1.1 1.23,1.03 2.02,-0.15 3.52,-4.98 1.39,-4.56 3.85,-13.9 3.85,-14.74 0,-1.1 -0.8,-0.19 -1.71,2.02l0 0z"/><path class="fil0" d="M71.6 344.58c-2.58,6.53 -3.13,9.82 -1.66,9.82 0.79,0 1.06,-0.87 2.65,-7.64 1.58,-6.81 1.19,-7.68 -0.99,-2.18z"/><path class="fil0" d="M130.09 345.17c-0.4,1.71 -1.03,4.6 -1.47,6.46 -1.19,5.07 -1.23,5.42 -0.75,5.7 0.24,0.16 0.79,0.2 1.19,0.04 0.99,-0.32 1.54,-2.69 2.02,-8.91 0.47,-6.22 0.47,-6.34 0.04,-6.34 -0.2,0 -0.68,1.39 -1.03,3.05l0 0z"/><path class="fil0" d="M33.58 356.26c-1.11,1.27 -5.07,14.89 -4.51,15.48 0.51,0.48 2.1,-1.86 4.16,-6.05 3.36,-6.89 3.96,-10.1 1.86,-10.1 -0.48,0 -1.19,0.32 -1.51,0.67z"/><path class="fil0" d="M190.87 369.88c-4.24,2.14 -9.94,4.8 -12.67,5.86 -6.97,2.78 -6.73,3.49 0.63,2.22 6.69,-1.19 19.05,-5.98 21.39,-8.31 1.54,-1.55 1.07,-3.81 -0.8,-3.73 -0.47,0 -4.31,1.79 -8.55,3.96l0 0z"/><path class="fil0" d="M49.7 401.09c-4.59,0.83 -5.74,1.15 -5.74,1.62 0,0.48 0.87,0.71 4.16,1.19 4.63,0.63 8.27,0.51 9.02,-0.32 0.92,-0.99 0.84,-1.9 -0.19,-2.61 -1.11,-0.79 -2.22,-0.75 -7.25,0.12z"/><path class="fil0" d="M71.48 401.37c-0.44,0.07 -2.02,0.23 -3.48,0.35 -3.05,0.32 -3.41,0.99 -0.72,1.47 8.16,1.38 25.82,3.01 45.3,4.11 12.79,0.76 13.43,0.72 13.67,-0.91 0.15,-1.07 -0.8,-1.98 -2.62,-2.49 -2.06,-0.59 -14.25,-1.9 -21.9,-2.38 -5.82,-0.35 -28.27,-0.47 -30.25,-0.15l0 0z"/><path class="fil0" d="M328.11 66.72c-0.75,0.8 -0.83,1.31 -1.86,11.49 -1.15,11.76 -2.14,18.37 -3.96,26.33 -6.77,29.66 -12.99,47.6 -20.79,60.23 -5.19,8.36 -20.63,26.45 -27.28,31.96 -1.35,1.15 -1.82,1.78 -1.55,2.06 0.56,0.55 7.29,-3.49 11.64,-7.01 6.86,-5.51 19.61,-19.29 23.64,-25.58 3.53,-5.43 10.1,-21.11 14.5,-34.57 2.61,-7.96 6.25,-21.98 7.76,-29.86 1.9,-10.06 2.85,-27.88 1.66,-32.39 -0.71,-2.81 -2.37,-4 -3.76,-2.66l0 0z"/><path class="fil0" d="M396.42 249.98c-0.75,1.34 -3.25,5.74 -5.58,9.78 -2.34,4.04 -7.33,12.83 -11.09,19.6 -3.72,6.73 -8.16,14.34 -9.86,16.83 -4.83,7.21 -13.94,19.28 -21.43,28.31 -17.34,20.99 -23.36,27.01 -38.41,38.69 -4.35,3.37 -24.15,16.32 -34.05,22.26 -10.38,6.25 -11.56,7.12 -11.41,8.47 0.2,1.82 2.34,1.66 6.78,-0.44 13.3,-6.29 34.21,-19.48 46.33,-29.22 12.07,-9.7 19.16,-16.95 33.81,-34.53 13.27,-15.92 18.97,-23.72 27.45,-37.5 1.66,-2.73 4.07,-6.57 5.3,-8.51 3.05,-4.76 9.31,-17.59 11.09,-22.69 1.54,-4.4 3.41,-11.41 3.41,-12.72 0,-1.54 -0.99,-0.83 -2.34,1.67l0 0z"/></g><text x="0" y="451.7" fill="#000000" font-size="5px" font-weight="bold" font-family="'Helvetica Neue', Helvetica, Arial-Unicode, Arial, Sans-serif">Created by Przemyslawk</text><text x="0" y="456.7" fill="#000000" font-size="5px" font-weight="bold" font-family="'Helvetica Neue', Helvetica, Arial-Unicode, Arial, Sans-serif">from the Noun Project</text></svg>